<svg xmlns="http://www.w3.org/2000/svg" width="90.034" height="100"><path d="M39.71 3.465A3.752 3.752 0 0143.29.009q14.4-.009 28.8 0a3.8 3.8 0 013.641 3.756c.01 5.856.038 11.719-.012 17.575a1.163 1.163 0 01-1.485 1q-16.556-.014-33.116-.007c-1.457.095-2.933-.76-4.337-.106-8.845 2.886-17.71 5.709-26.561 8.573-.093.057-.275.172-.365.232 5.064 2.732 10.209 5.315 15.294 8.01 3.493 1.75 6.9 3.68 10.422 5.367 11.029.1 22.063.013 33.092.041a7.575 7.575 0 017.152 7.224c.043 5 0 10 .019 15a10.442 10.442 0 01-.39 3.715 7.461 7.461 0 01-7.081 5.1c-3.409 0-6.815 0-10.221-.006-.034.9-.044 1.806-.028 2.71 3.879.686 7.746 1.45 11.635 2.082a11.574 11.574 0 0115.452-1.609 11.748 11.748 0 014.55 7.086 11.877 11.877 0 01-2.77 10.4 11.612 11.612 0 01-20.242-7.515c-12.439-.015-24.878.006-37.321-.01a11.617 11.617 0 11-3.031-8.429c3.845-.55 7.678-1.339 11.508-2.043a46.122 46.122 0 010-2.63c-2.218-.106-4.436.032-6.651-.078a12.593 12.593 0 01-11.149-11.913q.006-9.851 0-19.7c-5.837-3.086-11.693-6.135-17.528-9.221a4.7 4.7 0 01-2.372-3.036 4.77 4.77 0 012.92-5.643c10.02-3.194 20.105-6.2 30.1-9.459.043-2.141-.557-4.749 1.2-6.383 1.395-1.455 3.5-.976 5.284-1.111-.012-1.844-.068-3.687.012-5.524m2.048.3c-.018 3.646 0 7.3-.006 10.946 2.691.009 5.383 0 8.074 0-.046-4.232.118-8.47-.086-12.7-2.123.1-4.251-.028-6.373.063a1.654 1.654 0 00-1.609 1.687m10.246-1.75c-.182 4.226-.028 8.464-.077 12.7 3.929.012 7.857 0 11.786 0-.025-4.229.062-8.461-.046-12.689-3.889.044-7.777.059-11.663-.007m13.689.035c-.04 4.21.021 8.419-.034 12.629 2.66.072 5.324.025 7.987.035 0-3.647.022-7.293-.009-10.936a1.654 1.654 0 00-1.627-1.7c-2.1-.072-4.213 0-6.317-.025M35.355 12.3a46.038 46.038 0 00-.105 4.629c.875.895 1.738 1.8 2.632 2.676.439.529 1.182.379 1.785.473.009-3.021.047-6.041-.022-9.061-1.454.056-3.576-.423-4.29 1.283m6.434 4.385c-.049 1.22-.037 2.441-.037 3.665h31.891c.016-1.221.031-2.442-.046-3.659q-15.9.042-31.808 0M4.153 27.777a2.842 2.842 0 00-1.33.789 2.71 2.71 0 00.662 4.207q9.444 4.99 18.908 9.938c2.942 1.515 5.828 3.155 8.813 4.573a21.357 21.357 0 002.11-1.628c-8.3-4.392-16.646-8.686-24.965-13.03a1.813 1.813 0 01-1.061-2.251 2.079 2.079 0 011.618-1.321c8.7-2.77 17.37-5.609 26.066-8.376l.644-.3a15.052 15.052 0 00-1.723-1.893c-9.906 3.12-19.83 6.188-29.742 9.292m17.952 17.269c.016 3.111.04 6.222-.012 9.334 2.431-1.9 4.928-3.722 7.288-5.71-2.472-1.111-4.755-2.645-7.276-3.624m13.627 1.49c-4.322 3.089-8.42 6.513-12.674 9.709a1.752 1.752 0 00-.934 1.111c-.013 1.975-.019 3.95.012 5.928a10.59 10.59 0 0010.657 10.235c11.861-.015 23.721.01 35.582-.012a5.717 5.717 0 005.476-5.537c.052-4.707 0-9.418.024-14.126.065-1.8-.052-3.787-1.274-5.214a5.7 5.7 0 00-4.876-2.129c-10.663.031-21.333-.041-31.993.035m4.183 28.952q-.019 1.245-.019 2.5 8.059.009 16.117 0 .015-1.243-.025-2.481c-5.358 0-10.715.018-16.073-.01m-24.6 3.337a9.763 9.763 0 00-5.488 14.845 9.531 9.531 0 0010.979 3.782 9.715 9.715 0 00-5.491-18.627m60.629-.034a9.8 9.8 0 00-6.989 11.365c.916 5.146 6.466 8.868 11.5 7.544A9.721 9.721 0 1075.944 78.8m-38.478 1.55c-3.223.588-6.443 1.2-9.673 1.743a15.483 15.483 0 011.593 4.554c12.458.01 24.915-.012 37.373.01a14.928 14.928 0 011.6-4.539c-3.833-.585-7.622-1.44-11.455-2-4.742-.059-9.488-.006-14.23-.022a24.786 24.786 0 00-5.21.254zm-25.874 8.225a6.209 6.209 0 1112.387-.044c-.118.176-.356.527-.477.7-.241 0-.721 0-.959-.006a2.335 2.335 0 01-.615-1.609 4.183 4.183 0 00-8.331.354 2.109 2.109 0 01-.607 1.308 1.33 1.33 0 01-1.4-.705zm60.862-1.183a1.151 1.151 0 011.519.241 17.746 17.746 0 00.616 2.479 4.2 4.2 0 007.931-1.224 2.422 2.422 0 01.455-1.536 1.072 1.072 0 011.6.629 6.229 6.229 0 01-12.248 1.906c-.179-.811-.535-1.812.124-2.5z" fill-rule="evenodd"/></svg>