<svg xmlns="http://www.w3.org/2000/svg" width="100.032" height="80"><path d="M88.422.182c-2.921-.367-5.9-.06-8.843-.157C73.713.032 67.843.01 61.974.032a8.55 8.55 0 00-8.193 7.449c-.673 6.731-1.373 13.461-1.975 20.2-2.383-.026-4.766.023-7.153-.033.034-2.963.008-5.921.023-8.879a3.688 3.688 0 00-.992-2.992c-1.171-1.186-2.989-.86-4.492-.841a3.1 3.1 0 00-2.96 3.078c-.056 3.233.038 6.465-.041 9.7a7.378 7.378 0 00-5.2 1.656 20.237 20.237 0 00-3.188 4.151 7.833 7.833 0 00-6.052-1.809 7.183 7.183 0 00-4.976 3.236c-1.855 2.786-3.823 5.5-5.63 8.319-.6 1.108.973 2.448 1.863 1.471 1.612-2.041 2.955-4.29 4.463-6.407 1-1.359 1.747-3.086 3.382-3.8a4.714 4.714 0 015.854 1.69q9.377 13.283 18.712 26.59a3.658 3.658 0 01.865 2.136 2.989 2.989 0 01-2.956 3.01c-9.614.023-19.224.008-28.839.012-.007-4.265-.018-8.53 0-12.79-.052-.991.786-1.671 1.242-2.455 1.949-2.8 3.827-5.65 5.787-8.44a1.072 1.072 0 011.9.022c2.54 3.706 5.05 7.434 7.59 11.139a1.242 1.242 0 002.308-.225 1.836 1.836 0 00-.5-1.539c-2.477-3.612-4.931-7.238-7.4-10.85a3.574 3.574 0 00-5.278-.713c-2.593 3.225-4.643 6.881-7.168 10.162-2.342-1.092-4.392-2.74-6.734-3.836a1.321 1.321 0 00-1.354 1.494c-.026 6.892 0 13.789-.007 20.685a4.794 4.794 0 01-.524 2.583c-1.186 1.779-2.854 3.176-4.115 4.9a1.211 1.211 0 001.133 1.877c2.757 0 5.511-.015 8.264 0a4.925 4.925 0 004.747-3.5c.288-2.023-.015-4.084.176-6.115 9.2.105 18.409 0 27.616.053a7.229 7.229 0 003.887-.714 5.46 5.46 0 002.611-5.439c-.157-1.874-1.541-3.255-2.522-4.745-5.559-7.978-11.267-15.862-16.725-23.9a21.915 21.915 0 013.161-4.347c1.713-1.509 4.107-1.145 6.2-1.164 4.763-.12 9.525-.049 14.283-.067a1.081 1.081 0 001.052-1.115c.673-6.641 1.343-13.282 1.96-19.927a6.687 6.687 0 012.315-5.109 6.159 6.159 0 014.374-1.367c8.219.03 16.441-.041 24.66.034a1.788 1.788 0 011.653 2.508 1.817 1.817 0 01-1.683 1.107c-3.711.094-7.433-.09-11.144.075a1.214 1.214 0 00-.06 2.369c1.986.086 3.977-.019 5.959.049-.019 6.746-.041 13.5.008 20.245-.139.928.811 1.243 1.552 1.16a8.454 8.454 0 017.422 4.5c1.033 1.813 1 3.961.973 5.984 0 4.445-.034 8.886.019 13.331-7.819-2.94-16.262-3.507-24.522-3.938-7.606-.016-15.215-.034-22.816.007-1.373.067-1.407 2.425.041 2.4 13.587.308 27.376-.852 40.754 2.151 3.374.788 6.984 1.719 9.438 4.347a8.593 8.593 0 011.919 9.333 11.4 11.4 0 01-7.246 6.1c-11.848 3.7-24.406 3.206-36.665 3.229-6.124-.015-12.248.03-18.368-.019-4.059-.158-8.556-1.07-11.316-4.325a1.312 1.312 0 00-1.658 1.821c2.986 3.54 7.838 4.659 12.256 4.974q16.845.006 33.7 0c7.662-.368 15.42-.961 22.771-3.307a14.218 14.218 0 008.167-6.194 11.143 11.143 0 00-.315-11.529 16.493 16.493 0 00-3.666-3.769c-.119-4.5-.018-9-.052-13.5-.041-2.2.239-4.471-.52-6.585a10.673 10.673 0 00-9.51-7.391c-.018-6.345.015-12.689-.018-19.03 2.065-.064 4.564.428 6.068-1.381 2.147-2.23.969-6.506-2.133-7.111m-46.324 17.5c.124 3.33.083 6.675.011 10.013-1.107 0-2.214.025-3.325.063-.071-2.74 0-5.477-.041-8.21a6.162 6.162 0 01.209-2.106c1-.12 2.32-.462 3.146.24M12.073 54.98c.1 6.581.014 13.177.044 19.762a2.5 2.5 0 01-2.169 2.74c-1.968.113-3.943 0-5.919.057 1.448-1.705 3.2-3.409 3.319-5.8.1-6.6-.012-13.214.056-19.818 1.5 1.067 3.43 1.739 4.669 3.056zm63.782-24.9c.786-.664.812-2.233-.407-2.346-3.966-.142-7.946-.068-11.915-.037-1.384-.177-1.654 1.6-.789 2.383q6.559-.072 13.111 0zM53.47 34.593c-.068-.916-1.164-1-1.848-.747-.584.443-.479 1.25-.629 1.9q-.28 2.58-.58 5.166c.008.972 1.078 1.276 1.875 1.227a3.282 3.282 0 00.71-1.944c.09-1.877.562-3.724.472-5.605zm-5.533-.011a1.213 1.213 0 00-2.327 0c-.3 2.008-.46 4.035-.7 6.055a1.9 1.9 0 00.621 1.46h1.167a2.3 2.3 0 00.7-1.528c.15-2 .565-3.984.539-5.984zm41.087 29.65a2.247 2.247 0 00-1.564-.725c-2.106.015-4.224-.079-6.333.052a1.292 1.292 0 00.321 2.5c2.121.056 4.254.064 6.371-.008a1.581 1.581 0 001.205-1.82zm-13.307-.635c-1.687-.229-3.4-.03-5.1-.1-.86.045-1.874-.2-2.6.42a1.345 1.345 0 00.737 2.114c1.871.15 3.749.015 5.619.071.7-.015 1.657.034 1.979-.732a1.241 1.241 0 00-.636-1.772zm-12.356.049a52.912 52.912 0 00-6.947-.109 1.255 1.255 0 00-.292 2.433 38.713 38.713 0 004.759.127c.957-.079 2.106.252 2.869-.488a1.352 1.352 0 00-.389-1.963zm-20.156-.124a1.448 1.448 0 00-1.512 1.813 1.4 1.4 0 002.061.879 1.46 1.46 0 00-.549-2.692z" fill-rule="evenodd"/></svg>