<svg xmlns="http://www.w3.org/2000/svg" width="101" height="85"><path d="M74.445 2.36c.936 1.773.43 4.23-1.3 5.336-2.027 1.218-4.256 2.067-6.298 3.262-1.522.947-2.057 3.092-1.198 4.658 3.014 6.01 6.064 12.002 9.077 18.012.764 1.18.134 2.784-1.12 3.315A29459.08 29459.08 0 0135.7 56.026c-.785.355-1.514.906-2.373 1.04-1-.17-1.225-1.275-.799-2.055 13.411-6.684 26.756-13.505 40.167-20.189-3.014-6.09-6.112-12.14-9.158-18.213-1.303-2.534-.472-5.953 1.926-7.527 2.123-1.298 4.514-2.13 6.595-3.5 1.073-.863.538-2.685-.74-3-.574-.25-1.169.017-1.68.262C48.317 13.527 26.99 24.195 5.67 34.885c-.926.541-2.193.786-2.69 1.83-.221.67.176 1.284.588 1.79 5.715 7.418 11.352 14.899 17.08 22.306 13.947-.01 27.89-.018 41.836.004-.612-1.657-2.091-3.244-1.57-5.119.155-1.042 1.088-1.583 1.855-2.155-.876-1.994-2.02-3.862-2.982-5.81-.24-.474-.524-1.011-.218-1.514.24-.768 1.538-.86 1.933-.154 1.225 2.089 2.236 4.3 3.412 6.42 1.4-.933 3.39-.919 4.545.419 1.68 2.481 2.644 5.423 4.398 7.85 1.278.168 2.743-.453 3.299-1.675.528-.941.454-2.054.482-3.086-.007-6.207-.01-12.414 0-18.62-.045-.64.264-1.46 1.032-1.446 1.63-.13 3.27-.011 4.912-.046 2.168.02 4.425-.172 6.496.625 2.919 1.022 5.39 3.36 6.38 6.308 3.366 9.977 4.464 20.6 4.105 31.086.025.78-.863 1.046-1.493 1.026-1.764.03-3.528-.018-5.288.01.27 2.363.003 4.964-1.757 6.74-2.61 3.125-7.859 3.314-10.725.45-2.63-2.408-3.08-6.72-.993-9.612 1.996-3.026 6.33-4.09 9.531-2.405 1.19.51 1.947 1.59 2.902 2.412 1.87.095 3.746 0 5.622.028.145-8.868-.795-17.799-3.263-26.333-.54-1.695-.937-3.507-2.088-4.908-1.659-2.092-4.356-3.187-6.99-3.194-2.003-.01-4.003-.01-6 .003-.006 5.613-.01 11.223 0 16.834.082 2.288-.098 4.869-1.795 6.603-1.62 1.516-4.697 2.313-6.38.526-1.574-2.485-2.669-5.252-4.235-7.737-.564-.414-1.148-.004-1.662.235-.961.485-1.902 1.008-2.845 1.52.25 1.977 1.665 3.543 2.355 5.375.43.6-.169 1.562-.862 1.562-14.091 0-28.182-.003-42.27 0-.63-.06-1.217.13-1.767.39.011 1.853-.028 3.71.004 5.567-.046 1.517.965 3.041 2.457 3.462 1.099.193 2.236-.021 3.342.186.972.232 1 1.882.028 2.149-1.162.288-2.394.157-3.56-.018-2.415-.418-4.422-2.615-4.482-5.076-.08-2.219-.024-4.441-.017-6.66-.022-.663.102-1.404-.398-1.92C12.73 54.33 7.554 47.53 2.357 40.744c-.7-.927-1.553-1.84-1.693-3.036-.261-1.622.644-3.321 2.15-3.988C24.832 22.672 46.873 11.666 68.89.622l.233-.117c1.9-.869 4.397-.04 5.323 1.855zM69.122.505c20.294-10.18 2.296-1.152 0 0zm12.245 76.887c.275 2.822 3.264 5.002 6.049 4.377 2.795-.463 4.83-3.546 4.017-6.277-.63-2.65-3.602-4.48-6.253-3.71-2.436.58-4.207 3.12-3.813 5.61zM49.774 23.434c1.69 3.44 3.464 6.842 5.15 10.286.66 1.215-1.513 2.32-2.066.98-1.796-3.497-3.56-7.015-5.327-10.525-.486-.643-.099-1.517.612-1.77.747-.291 1.377.387 1.63 1.029zm-8.113 2.37c.75-.158 1.081.617 1.374 1.161 1.623 3.297 3.334 6.548 4.946 9.855.328.505.106 1.092.04 1.65-.614.158-1.515.474-1.881-.25-1.873-3.45-3.55-7.003-5.338-10.493-.482-.73-.183-2.025.86-1.923zm-5.725 4.03c1.497 2.84 2.866 5.75 4.352 8.604.433.983 1.306 1.945 1.025 3.104-.493.831-1.905.695-2.187-.243-1.693-3.356-3.397-6.709-5.077-10.068-.401-.6-.436-1.523.275-1.9.56-.255 1.38-.164 1.612.502zm-6.7 3.567c1.743 3.489 3.542 6.957 5.257 10.464.517.773-.391 1.868-1.247 1.626-.591.014-.795-.664-1.052-1.057-1.698-3.356-3.373-6.723-5.067-10.075-.518-.72.039-1.77.912-1.787.528-.035 1.003.326 1.197.829zm12.781 38.11c.894.952-.58 2.482-1.574 1.612-1.306-1.1-3.056-1.84-4.77-1.38-2.694.505-4.638 3.451-3.937 6.115.546 2.675 3.493 4.575 6.161 3.873 1.067-.19 1.87-.956 2.76-1.506.997-.559 2.128.852 1.385 1.702-1.884 2.124-5.095 2.696-7.736 1.85-2.915-.983-5.13-3.928-4.978-7.035-.162-3.395 2.478-6.565 5.774-7.264 2.443-.522 5.193.176 6.915 2.033zm6.443-2.068c1.775-.305 3.673-.084 5.236.857 2.693 1.485 4.204 4.785 3.588 7.79-.373 2.18-1.796 4.175-3.775 5.189-3.084 1.71-7.366.863-9.467-1.99-1.828-2.339-2.064-5.78-.518-8.317 1.031-1.819 2.898-3.1 4.936-3.529 2.039-.428 0 0 0 0zm-3.626 7.274c-.095 2.532 2.014 4.862 4.531 5.115 2.912.422 5.83-2.123 5.708-5.072.158-3.135-3.113-5.783-6.162-5.028-2.31.429-4.137 2.637-4.077 4.985zm29.241-4.174c.771.046 1.722-.186 2.338.443.507.754.025 1.9-.93 1.91-4.587.087-9.179-.004-13.763.042-.722-.007-1.704.003-1.986-.811-.341-.58.148-1.286.701-1.503 4.538-.182 9.095-.007 13.64-.08z"/></svg>