<svg xmlns="http://www.w3.org/2000/svg" width="110" height="85.96"><path d="M2.107 1.3C3.636 0 5.735-.11 7.659-.01c10.852.02 21.708-.01 32.56.01a1.738 1.738 0 011.5.96c3.173 4.63 6.309 9.28 9.534 13.88q28.633-.015 57.261 0a1.168 1.168 0 011.343 1.31c.061 7.1-.013 14.21.032 21.31-.045.77.114 1.94-.878 2.16-2.176.54-4.406.87-6.61 1.25 1.77 2.59 3.665 5.1 5.5 7.65a6.472 6.472 0 011.086 6.23c-.651 2.03-2.566 3.2-4.149 4.47a18.873 18.873 0 01-.98 17.48 19.237 19.237 0 01-33.475-1.09c-.549-1.08-.955-2.23-1.436-3.33-7.073.1-14.146.02-21.219.04a19.183 19.183 0 01-36.741.03c-2.92-.27-6.321.69-8.8-1.3-2.229-1.71-2.469-4.82-1.936-7.36a5.861 5.861 0 014.12-4.2c.049-6.95 0-13.9.021-20.84a1.469 1.469 0 01.874-1.66 32.6 32.6 0 014.946-.15c.025-3.82-.089-7.65.057-11.46a10.7 10.7 0 016.166-9.09c1.973-.88 4.056-1.5 6.008-2.44-3.641-2.06-7.907-2.16-11.975-2.31-2.782-.5-6 .36-8.342-1.58a5.643 5.643 0 01-.012-8.66m1.135 2.72a2.894 2.894 0 001.574 4.39c5.491.89 11.3.02 16.583 2.06a19.886 19.886 0 0110.262 8.84q4.265 7.665 8.5 15.35c1.387 2.45 2.587 5.09 4.665 7.07a16.767 16.767 0 0014.517 4.59c15.976-2.94 31.921-6.09 47.91-8.97.069-6.66.04-13.32.012-19.98-18.7.04-37.392 0-56.09.03-.712-.01-1.57.04-1.924-.7-3.209-4.64-6.39-9.31-9.578-13.97-11.08-.07-22.16-.01-33.239-.04a3.289 3.289 0 00-3.193 1.33m14.878 14.45a8.063 8.063 0 00-5.2 7.72c.049 3.57-.089 7.14.082 10.7 8.415-.15 16.835.05 25.246-.1-2.786-5.12-5.642-10.2-8.448-15.31a16.437 16.437 0 00-4.657-5.73c-2.359.87-4.686 1.82-7.025 2.72m-11 21.01q-.012 10.29 0 20.57c-.024.65 0 1.61-.789 1.83-.94.23-2.03.24-2.685 1.05-1.053.88-.935 2.33-.9 3.56a3.107 3.107 0 003.254 3.19c1.48.02 2.965 0 4.453 0a18.565 18.565 0 012.482-12.37 19.226 19.226 0 0133.922 2.14 20.2 20.2 0 011.448 10.24c6.731-.02 13.467.05 20.2-.04a18.35 18.35 0 011.843-11.14 19.194 19.194 0 0133.113-1.71c1.293-.86 2.822-1.81 3.115-3.46a4.515 4.515 0 00-1.269-3.81c-1.973-2.68-3.888-5.4-5.857-8.07-11.087 2.12-22.187 4.19-33.275 6.29-3.234.49-6.415 1.52-9.713 1.41a19.262 19.262 0 01-16.725-9.67c-10.873-.03-21.745-.01-32.621-.01m19.076 11.59a16.419 16.419 0 00-8.456 4.47 16.142 16.142 0 00-3.563 17.73 16.6 16.6 0 0016.693 9.99 16.794 16.794 0 0010.847-5.54 16.1 16.1 0 002.587-17.39 16.516 16.516 0 00-18.108-9.26m58.164-.02a16.289 16.289 0 1016.746 24.96 16.164 16.164 0 00-.017-17.97 16.537 16.537 0 00-16.729-6.99zm-57.017 9.16a7.718 7.718 0 015.247.49 7.077 7.077 0 013.661 8.26 7.175 7.175 0 01-6.2 5.15c-3.945.49-7.9-2.87-7.822-6.85a7.03 7.03 0 015.117-7.05m.838 2.54a4.444 4.444 0 105.629 4.14 4.484 4.484 0 00-5.629-4.14zm57.281-2.56a7.532 7.532 0 016.22 1.12 7.107 7.107 0 011.907 9.34 7.22 7.22 0 01-8.3 3.17 7.1 7.1 0 01.171-13.63m.887 2.53a4.48 4.48 0 00-3.181 2.88 4.477 4.477 0 103.181-2.88z" fill-rule="evenodd"/></svg>