<svg xmlns="http://www.w3.org/2000/svg" width="100" height="83"><path d="M56.66.85a24.994 24.994 0 017.47-.81c6.13 0 12.25.007 18.38-.007a7.011 7.011 0 016.74 6.823c.04 14.847-.01 29.7.03 44.549a20.558 20.558 0 019.04 2.856c.81.394.68 2.016-.3 2.094a2.592 2.592 0 01-1.69-.5 17.886 17.886 0 00-20.56 2.741 16.187 16.187 0 00-4.55 7.619 9.855 9.855 0 01-.74 2.558 3.55 3.55 0 01-1.66.273c-6.13-.022-12.26-.008-18.39-.012a21.892 21.892 0 01-3.22-.1 1.064 1.064 0 01-.72-1.094c.05-8.986-7.29-17.675-16.41-18.474a6.433 6.433 0 01-1-.557 20.318 20.318 0 011.01-3.981c2.66-8.843 5.29-17.692 7.97-26.527A26.67 26.67 0 0156.66.841m-.89 2.741a24.372 24.372 0 00-14.19 12.365c-1.32 2.641-1.94 5.546-2.84 8.344-2.26 7.666-4.69 15.289-6.84 22.987 8.92 1.464 15.97 9.621 16.82 18.452.1.341-.06 1.188.6 1.012 6.45.007 12.91.043 19.36-.022 1.5-8.469 9.54-14.969 18.09-15.249.13-4.419.12-8.853 0-13.272-5.74.122-11.49-.011-17.24.068a11.869 11.869 0 00-11.51 9.832 12.483 12.483 0 01-.45 2.784 3.253 3.253 0 01-2.08.412 39.073 39.073 0 01-6.52-.276 10.8 10.8 0 01-7.74-5.628 9.716 9.716 0 01-.4-7.354c1.01-3.293 1.89-6.625 2.95-9.9a1.178 1.178 0 012.22.574c-.96 3.81-2.26 7.537-3.22 11.346-.71 3.293 1.46 6.626 4.45 7.946 2.55 1.273 5.48.764 8.22.84a14.439 14.439 0 019.79-12.237c2.65-.972 5.5-.663 8.26-.7h13.35V6.822a4.7 4.7 0 00-4.67-4.488c-5.76-.057-11.53 0-17.3-.025a27.007 27.007 0 00-9.11 1.277zm-36.96-2.07a3.042 3.042 0 011.25-.014c.67.341.46 1.141.52 1.762-.03 17.559.02 35.122-.03 52.684a14.937 14.937 0 0112.22-.351 14.252 14.252 0 01-5.39 27.363 14.181 14.181 0 01-12.07-6.023c-4.75-.05-9.5.044-14.26-.039-1.31-.022-1.33-1.676-.41-2.275 4.46.065 8.9 0 13.36.026a14.31 14.31 0 01.35-12.556 15.906 15.906 0 013.94-4.77c-.02-2.605 0-5.209 0-7.814a7.2 7.2 0 01-6.16-3.117 6.1 6.1 0 01-1-4.024c.03-3.842-.02-7.684.01-11.523a6.738 6.738 0 017.15-5.739c-.02-7.279.01-14.557-.01-21.832.05-.617-.11-1.395.53-1.758m-4.83 28.192a7.061 7.061 0 00-.56 3.7c.04 3.215-.04 6.433.03 9.65a4.348 4.348 0 004.85 3.975c-.02-6.5-.04-13 .01-19.5a4.323 4.323 0 00-4.33 2.181m11.07 27.263a11.923 11.923 0 003.79 23.543 12.132 12.132 0 008.87-6.321 11.849 11.849 0 00.12-10.708 12.045 12.045 0 00-12.78-6.514zm61.23 2.439a11.862 11.862 0 11-8.21 18.184 11.861 11.861 0 018.21-18.184m-.72 2.561a9.6 9.6 0 00-7.01 8.725 9.5 9.5 0 004.48 8.5 9.617 9.617 0 0011.96-1.485 9.469 9.469 0 002.39-8.757 9.661 9.661 0 00-5.49-6.517 9.906 9.906 0 00-6.33-.467zm-60.31.122a6.943 6.943 0 017.46 2.655 7.153 7.153 0 01.95 6.1 6.909 6.909 0 11-8.41-8.753m.16 2.429a4.513 4.513 0 001.98 8.7 4.515 4.515 0 10-1.98-8.7zm61.23.972a5.888 5.888 0 017.24 4.89 5.845 5.845 0 11-11.57-.245 5.874 5.874 0 014.33-4.645m-.02 2.518a3.466 3.466 0 00-.33 6.081c2.16 1.542 5.47-.46 5.25-3.042a3.484 3.484 0 00-4.92-3.039z" fill-rule="evenodd"/></svg>