<svg xmlns="http://www.w3.org/2000/svg" width="100.004" height="92"><path d="M77.206 8.55a11.6 11.6 0 1121.078 9.11c-.43.46.14.93.31 1.37a7.468 7.468 0 01-1.79 9.43c-.91.68-2 1.5-3.21 1.18a1.273 1.273 0 01.31-2.28 5.144 5.144 0 003.13-5.59c-.16-1.29-1.11-2.22-1.76-3.26-.33-.55.21-1.04.44-1.48a8.875 8.875 0 001.62-7.45 9.173 9.173 0 00-16.967-2.33 8.988 8.988 0 001.135 10.22c.373.51 1.082 1 .791 1.74a6.091 6.091 0 00-.69 3.4c.127 1.58 1.567 2.58 2.96 3.05a1.5 1.5 0 010 1.7c-.9 1-2.281.03-3.128-.54-2.423-1.74-2.818-5.1-1.833-7.73a11.5 11.5 0 01-2.4-10.54zm-36.7 20.37a4.593 4.593 0 013.766-4.76 44.257 44.257 0 014.465-.08c6.961.04 13.93-.06 20.891.05 1.4.26 1.019 2.58-.4 2.43-8.07.06-16.144-.04-24.214.04a2.049 2.049 0 00-1.787 3.03c.5 1.09 1.836 1.22 2.907 1.14 7.223-.01 14.445 0 21.668-.01a4.373 4.373 0 014.359 5.17 88.4 88.4 0 00-3.344 19.35c2.93-.07 5.856.1 8.786.22-.03-2.8 0-5.6-.022-8.4a3.454 3.454 0 01.873-2.75 3.973 3.973 0 012.751-.92c.008-2 0-3.99 0-5.98a6.049 6.049 0 013.662-5.3 17.357 17.357 0 013.038-1.41 1.22 1.22 0 01.945 2.06c-1.322.97-3.039 1.32-4.222 2.49a3.9 3.9 0 00-1.049 2.89c-.018 1.72.023 3.44-.011 5.17a4.724 4.724 0 012.673.97 3.127 3.127 0 01.948 2.39c0 3.09-.012 6.18 0 9.28a14.581 14.581 0 014.6.61 6.922 6.922 0 014.47 6.47c.04 4.17.02 8.36.01 12.54a8.052 8.052 0 012.22 1.48 4.851 4.851 0 01-1.06 7.26 6.441 6.441 0 01-3.8.63 8.22 8.22 0 11-13.888-7.06 8.312 8.312 0 0110.938-.49 8.783 8.783 0 013.01 5.18c1.02-.08 2.27.08 3.01-.81a2.291 2.291 0 00.01-2.99c-.65-.93-2.05-.54-2.75-1.35-.15-4.8.03-9.62-.09-14.42a4.668 4.668 0 00-4.457-4.44c-6.938-.61-13.907-.77-20.868-.88-.056 1.65.045 3.3-.045 4.96a1.2 1.2 0 01-1.792.8c-.716-.34-.612-1.25-.638-1.88a98.256 98.256 0 013.52-25.6c.489-1.12-.127-2.71-1.471-2.71-6.9-.09-13.8-.11-20.7-.1.549 5.75 1.277 11.49 1.751 17.25-.9.96-2.258.67-3.43.71-5.215-.05-10.426-.12-15.64-.05a10.767 10.767 0 00-7.943 3.99c-2.112 2.49-4.341 4.9-6.382 7.44-.157 9.46.041 18.93-.1 28.39.037.86-.945 1.11-1.631 1.07-4.129 0-8.257.01-12.382 0a1.336 1.336 0 01-1.634-1.41c1.3-2.78 4.684-4.52 4.886-7.81.063-4.59-.015-9.18.03-13.76-.105-.87.593-1.45 1.093-2.04a39.917 39.917 0 012.8-3.14 1.282 1.282 0 011.806 1.39c-.888 1.55-2.411 2.64-3.292 4.18-.112 4.7 0 9.41-.049 14.12-.115 2.41-1.989 4.14-3.381 5.94 3.116.03 6.233.01 9.35.01q.016-13.92 0-27.84c2.348-2.85 4.822-5.6 7.237-8.39a13.527 13.527 0 019.918-4.65c5.367-.03 10.734.03 16.1.03a778.734 778.734 0 00-1.62-15.46 4.535 4.535 0 01-4.4-4.24m39.6 17.09c-.038 3.2-.015 6.42-.019 9.63 1.519-.03 3.042.03 4.565.14.007-3.26.112-6.53-.06-9.78-1.5-.02-3-.02-4.486.01m3.923 32.22a5.789 5.789 0 00-4.319 5.62 5.756 5.756 0 1011.3-1.67 5.8 5.8 0 00-6.981-3.95zM25.21 57.12a7.1 7.1 0 015.237-2.6c4.479.01 8.962.02 13.444 0a6.154 6.154 0 016.178 5.42c.272 2.6.474 5.21.769 7.81.048.92.985 1.34 1.605 1.9 3.128 2.51 6.207 5.08 9.346 7.58a8.488 8.488 0 0110.238.21A8.184 8.184 0 0164.79 91.7a8.1 8.1 0 01-6.1-6.77 8.6 8.6 0 011.344-5.89c-3.5-2.89-6.984-5.83-10.593-8.57-1.967.41-3.852 1.16-5.789 1.69a1.939 1.939 0 00-1.658 2.04c.262 2.85.78 5.67 1.124 8.52a9.756 9.756 0 01-5.345 9.19 1.212 1.212 0 01-1.239-1.97 14.7 14.7 0 002.754-2.48 6.971 6.971 0 001.292-5.06c-.306-2.65-.747-5.29-1.068-7.93a4.3 4.3 0 012.826-4.44c1.993-.67 4.02-1.26 6.039-1.86-.2-2.7-.481-5.39-.795-8.08a3.772 3.772 0 00-3.665-3.18c-4-.06-8 0-11.989-.03a5.863 5.863 0 00-4.3 1.28c-1.687 1.66-2.982 3.68-4.71 5.29-.646.5-1.307-.05-1.829-.4v-1.07c1.337-1.65 2.729-3.26 4.121-4.86m40.17 21.1a5.817 5.817 0 00-4.334 5.66 5.761 5.761 0 1011.314-1.69 5.813 5.813 0 00-6.98-3.97zm-46.758-2.5a7.975 7.975 0 018.551 5.93 8.19 8.19 0 01-3.661 9.12 8.893 8.893 0 01-4.259 1.22 1.292 1.292 0 01-1.124-1.8c.512-.92 1.706-.65 2.572-.88a5.736 5.736 0 004.24-6.18 5.675 5.675 0 00-4.736-4.98c-.691-.23-1.628-.02-2.064-.68-.146-.61-.217-1.47.481-1.75z" fill-rule="evenodd"/></svg>