<svg xmlns="http://www.w3.org/2000/svg" width="100" height="105"><path d="M23.61 2.84a12.035 12.035 0 0115.58.06q16.1 14.745 32.16 29.49c5.37 4.85 10.6 9.83 16.03 14.61q.015-12.585 0-25.16a5.458 5.458 0 00-3-4.99 7.785 7.785 0 00-3.48-.53c-7.26.02-14.51 0-21.77.02-.74.01-1.86-.06-1.91-1.01-.22-.66.36-1.08.74-1.51 8.16.07 16.32.01 24.47.02a7.706 7.706 0 016.68 4.4c.93 1.8.66 3.89.7 5.85.01 8.24-.02 16.49.01 24.73-.09.78.75 1.11 1.2 1.6a6.3 6.3 0 012.47 4.43c.05 3.29-.07 6.59.05 9.88 1.66 2.52 3.91 4.68 4.99 7.56 1.85 4.21 1.44 8.9 1.44 13.38a5.947 5.947 0 01-3.25 5.1c-1.94.96-4.15.45-6.22.57a15.353 15.353 0 01-4.79 9.66 15.062 15.062 0 01-16.44 2.67 14.757 14.757 0 01-8.67-12.31c-2.21-.01-4.42-.07-6.62.04a14.69 14.69 0 01-6.31 10.92 15.1 15.1 0 01-16.68.34 14.923 14.923 0 016.09-27.38c-1.46-3.07-3.04-6.09-4.52-9.14a1.32 1.32 0 01.96-2.13c9.26-.11 18.55.12 27.81-.11 2.47-2.09 4.74-4.39 7.18-6.52a7.13 7.13 0 001.83-8.41 10.416 10.416 0 00-2.79-3.27c-12.24-10.99-24.4-22.07-36.66-33.05-4.83 3.95-9.69 7.86-14.53 11.79.01 6.19 0 12.37.01 18.56a4.65 4.65 0 014.08 2.84 4.45 4.45 0 01-1.69 5.33c-1.37.98-3.12.61-4.68.66.01 2.09-.02 4.17.01 6.25a24.406 24.406 0 013.43-1.19 1.258 1.258 0 01.28 2.44c-4.68 1.84-9.35 3.73-14.07 5.47-1.27.44-1.76-.91-1.56-1.91 1.38-.8 2.96-1.16 4.37-1.9.22-3.02-.03-6.07.11-9.1-1.7-.11-3.66.28-5.02-1.01a4.373 4.373 0 01-.19-6.65 6.031 6.031 0 012.86-1.29c-.1-7.55 0-15.1-.05-22.65a2.344 2.344 0 01.54-1.97q9.4-7.74 18.82-15.48m5.37-.04a10.13 10.13 0 00-4.22 2.35c-5.94 4.95-11.99 9.78-17.88 14.78-.14 7.71-.03 15.44-.06 23.16 2.34-.02 4.69.06 7.03-.06-.08-6.3-.04-12.61-.03-18.92-.1-1.05.89-1.58 1.58-2.15 3.87-3.11 7.72-6.25 11.58-9.37 1.32-.93 2.4-2.27 3.91-2.89 1.12.16 1.8 1.25 2.64 1.91q17.3 15.585 34.56 31.2c1.61 1.46 3.45 2.82 4.41 4.83a9.657 9.657 0 01-1.62 10.96c-1.88 1.83-3.93 3.49-5.76 5.38 8.64-.02 17.28.09 25.93-.06-.15-3 .04-5.99-.1-8.98-.15-1.72-1.72-2.7-2.86-3.77q-25.125-23.1-50.3-46.13a9.247 9.247 0 00-8.81-2.24m-25 42.85c-2.01.33-1.82 3.57.21 3.7 3.53.18 7.09.01 10.63.08 1.08-.01 2.49.13 3.13-.96a1.86 1.86 0 00-1.57-2.87c-4.13 0-8.27-.11-12.4.05m5.13 6.18c.01 2.74-.01 5.48.02 8.22.85-.33 1.7-.68 2.54-1.06-.03-2.37-.03-4.75 0-7.12-.86-.02-1.71-.03-2.56-.04m26.54 14.72c1.28 2.93 2.84 5.73 4.21 8.62a15.151 15.151 0 018.6 3.28 14.949 14.949 0 015.57 10.4c2.17.02 4.34-.01 6.51.02a15 15 0 016.61-11.19 15.186 15.186 0 0117.56.63 15.645 15.645 0 015.84 10.58c1.95-.22 4.37.54 5.93-1.03 1.08-.93.92-2.46.95-3.74-.08-3.39.31-6.91-.95-10.14a20.336 20.336 0 00-3.67-5.97c-.55-.62-.98-1.68-1.98-1.48-18.4.02-36.79-.01-55.18.02m1.46 11.26a12.925 12.925 0 00-6.23 2.92 12.437 12.437 0 00-2.2 16.21 12.459 12.459 0 108.43-19.13m35.59.17a12.612 12.612 0 00-9.39 9.42 12.267 12.267 0 002.72 10.76 12.479 12.479 0 0021-3.37 12.3 12.3 0 00-.81-11.04 12.557 12.557 0 00-13.52-5.77zM40.48 27.89a1.263 1.263 0 011.84 1.56q-3.735 14.4-7.58 28.78c-.26 1.66-3.07.94-2.37-.68 2.37-9.39 4.95-18.73 7.36-28.12a2.616 2.616 0 01.75-1.54zm-24 36.24c.66-.29 1.71-.38 2.04.43a1.3 1.3 0 01-.96 1.85c-4.65 1.79-9.25 3.68-13.92 5.4a1.236 1.236 0 01-.83-2.3c4.53-1.85 9.12-3.57 13.67-5.38zm.39 6.82c1.24-.7 2.54 1.32 1.31 2.11-3.59 1.57-7.29 2.87-10.92 4.34a34.572 34.572 0 01-3.87 1.42 1.193 1.193 0 01-1.21-1.52c-.01-.67.78-.87 1.28-1.12 4.47-1.72 8.93-3.5 13.41-5.23zm-.42 7.12a1.5 1.5 0 011.94.21 1.181 1.181 0 01-.32 1.8 34.48 34.48 0 01-3.95 1.56c-.07 2.22-.05 4.44-.03 6.66a9.458 9.458 0 01-3.17 7.53c-1.31.47-2.02-1.01-2.68-1.85-1.93-2.73-1.65-6.19-1.62-9.36a19.824 19.824 0 01-3.24 1.15c-1.45.17-1.71-2.21-.33-2.44 4.46-1.77 8.94-3.5 13.4-5.26m-7.33 6.4c.11 2.72-.57 5.88 1.37 8.13 1.78-3.03.97-6.62 1.18-9.94-.87.53-2.78.41-2.55 1.81zm28.36-.19c3.55-1.1 7.65 1.83 7.59 5.55a5.993 5.993 0 11-7.59-5.55m.86 2.39a3.61 3.61 0 00-2.82 3.55 3.7 3.7 0 003.35 3.4 3.52 3.52 0 10-.53-6.95zm36.11-2.52a6.009 6.009 0 11-4.92 4.87 6.127 6.127 0 014.92-4.87m.17 2.55a3.515 3.515 0 00-1.15 6.24c2.08 1.74 5.59-.09 5.53-2.72a3.508 3.508 0 00-4.38-3.52z" fill-rule="evenodd"/></svg>