<svg xmlns="http://www.w3.org/2000/svg" width="99.999" height="99"><path d="M30.374 5.18a4.482 4.482 0 014.433-5.19Q47.728.02 60.652 0a4.508 4.508 0 014.313 4.86 4.587 4.587 0 01-3.875 4.31c-.142 6.8-.03 13.6-.06 20.4a118.1 118.1 0 0119.358 6.09 16.766 16.766 0 018.91 9.54c1.321 4.17 1.511 8.6 2.421 12.87a7.261 7.261 0 018.23 6.34c.05 5.52-.05 11.05.05 16.57-.26.23-.52.46-.79.69-1.63.09-3.26 0-4.88.03a13.929 13.929 0 01.72 6.41 12.7 12.7 0 11-24.413-6.4q-8.738-.03-17.471-.01a23.936 23.936 0 01-9.655 12.87A23.516 23.516 0 018.082 81.75a8.911 8.911 0 01-4.092-.66 6.883 6.883 0 01-.131-12.43 10.571 10.571 0 014.241-.81 23.4 23.4 0 0110.722-13.46 23.59 23.59 0 0132.789 9.8c.637 1.17 1 2.46 1.546 3.69 3.108.16 6.23.01 9.341.06a30.617 30.617 0 015.664.22c.524.92.153 2.37-1.1 2.29q-30.16.03-60.323.01a4.365 4.365 0 00-4.189 4.85 4.473 4.473 0 004.552 3.98c21.555.07 43.114-.01 64.673.04a13.563 13.563 0 017.165-5.22 12.807 12.807 0 0114.15 5.18c1.47.04 2.95.04 4.43-.01-.02-4.69 0-9.37-.01-14.06.14-2.86-2.67-5.06-5.4-4.76-3.246-.02-6.491.06-9.73-.02-1.336.13-1.553-1.95-.351-2.32 2.373-.09 4.754 0 7.131-.04-.415-3.13-1-6.23-1.482-9.34a14.328 14.328 0 00-8.334-10.82 106.533 106.533 0 00-18.305-5.77c-.019 3.03-.015 6.05 0 9.08a6.235 6.235 0 01-4.492 6.01 14.668 14.668 0 01-3.744.25q-9-.015-18 0c-3.564.02-7.184-.15-10.673.71a25.106 25.106 0 00-14.809 9.49C8.34 58.9 7.67 60.31 6.76 61.57a1.225 1.225 0 01-1.856-1.53 28.337 28.337 0 0113.008-12.43 68.247 68.247 0 011.269-10.12 88.335 88.335 0 019.314-23.96 13.221 13.221 0 017.7-6.18c2.594-.84 5.338-.57 8.015-.6h16.1a2.188 2.188 0 001.98-3.17 2.436 2.436 0 00-2.373-1.2c-8.371.03-16.745-.04-25.115.03-1.318.02-2 1.29-2.164 2.45a1.221 1.221 0 01-2.258.32m5.754 4.81a10.844 10.844 0 00-5.428 4.66 83.41 83.41 0 00-6.027 13.01c-2.156 6.07-4.051 12.38-4.111 18.88a37.834 37.834 0 0110.131-1.57h24.362a3.714 3.714 0 003.123-2.04c.625-1.35.348-2.89.4-4.33.022-9.73-.06-19.47.041-29.2-4.672-.32-9.377-.05-14.061-.14-2.807.11-5.761-.38-8.434.73M23.455 54.97a21.2 21.2 0 00-12.807 12.98c13.282.01 26.564-.04 39.846.02a21.042 21.042 0 00-27.039-13m56.86 21.33a10.233 10.233 0 1012.226 8.24 10.317 10.317 0 00-12.226-8.24m-69.674 5.42a21.1 21.1 0 0028.922 12.24A21.468 21.468 0 0050.569 81.7c-13.308 0-26.62-.03-39.928.02zm20.155-47.56c2.819-.29 5.682-.04 8.516-.12 5.11.02 10.224-.05 15.33.04 1.393.07 1.1 2.64-.337 2.33-7.611.01-15.229.03-22.843-.02-1.217.19-1.565-1.65-.666-2.23z" fill-rule="evenodd"/></svg>