<svg xmlns="http://www.w3.org/2000/svg" width="99.969" height="99"><path d="M.026 9.73A9.047 9.047 0 018.643.03a9.423 9.423 0 017.353 2.78c7.6 7.89 15.218 15.75 22.791 23.66 6.851-6.61 13.516-13.41 20.337-20.05a2.714 2.714 0 013.884.24c.546.37.879 1.32 1.665 1.16a4.685 4.685 0 00-.37-3.52 4.1 4.1 0 00-3.26-1.92 3.96 3.96 0 00-3.958 3.31c-.214.56-.045 1.41-.711 1.7a1.163 1.163 0 01-1.763-.99A6.17 6.17 0 0161.025.02a6.307 6.307 0 016.207 5.04 6.88 6.88 0 01-.988 4.94c8.487 8.7 16.921 17.43 25.4 26.12 1.392 1.49 3.09 2.82 3.812 4.78a8.424 8.424 0 01.438 3.34c-.011 6.01 0 12.02-.007 18.03a5.522 5.522 0 013.91 3.95 42.715 42.715 0 01.142 5.45c-.071 1.78.284 3.69-.516 5.36a5.11 5.11 0 01-4.371 2.88c-1.96.09-3.917.02-5.874.03-.038 1.43-.034 2.87-.03 4.31 2.129.12 4.4-.35 6.391.64a7.356 7.356 0 014.105 8.67 7.459 7.459 0 01-7.2 5.42c-11.842.03-23.682 0-35.521.02a8.543 8.543 0 01-4.5-1.02 7.351 7.351 0 013.326-13.72c6.085-.01 12.173.04 18.26-.02-.026-1.43-.026-2.86-.022-4.29-2.694-.04-5.388.05-8.078-.03a5.12 5.12 0 01-4.88-4.93c-.078-3.7.116-7.41-.086-11.09C45.1 47.31 29.078 30.88 13.224 14.31c-3.341 3.22-6.593 6.54-9.92 9.78a1.839 1.839 0 00-.819 1.28q-.023 18.33-.007 36.67a3.647 3.647 0 001.912 3.41 3.37 3.37 0 004.654-1.94c.3-.72.113-1.7.827-2.19.637-.16 1.647-.12 1.755.72a5.656 5.656 0 01-4.7 6.11 5.9 5.9 0 01-6.889-5.36C.022 45.1.048 27.41.022 9.73m2.492-1.31c-.116 4.36.049 8.72-.082 13.07 3.008-3 6.069-5.96 9.044-9-.842-.82-1.647-1.67-2.481-2.49a1.3 1.3 0 012.177-1.34C28.1 26.18 44.942 43.77 61.919 61.24c.617-1.66 1.418-3.24 2.061-4.88a7.46 7.46 0 00-1.635-1.94q-23-23.76-45.912-47.58c-1.6-1.71-3.184-3.72-5.608-4.23a6.715 6.715 0 00-8.311 5.81m54.978 3.01L40.546 28.24Q52.826 41.05 65.2 53.78a10.615 10.615 0 014.764-4.11c2.712-1.23 5.766-.72 8.654-.84.7-.03 1.894.01 1.9.97.086 4.15-.022 8.31.045 12.47 2.062-.01 4.124-.02 6.189 0 .079-6.88-.037-13.76.06-20.64 1.119-1.17 2.331-2.26 3.409-3.47-9.819-9.96-19.48-20.07-29.28-30.05-1.231 1.02-2.3 2.21-3.45 3.32M89.15 42.82c.027 6.48-.041 12.97.034 19.45 1.433-.02 2.87-.02 4.311-.01.041-6.01 0-12.02.026-18.04a5.44 5.44 0 00-1.444-4.1c-1.171.62-1.942 1.82-2.927 2.7m-19.565 9.86c-2.507 1.6-3.211 4.62-4.4 7.14-.621 1.69-1.807 3.28-1.661 5.17.045 3.33-.037 6.67.034 10a2.8 2.8 0 003.06 2.59q13.852.03 27.7 0a2.829 2.829 0 003.083-2.61c.052-2.58.052-5.17 0-7.74a2.708 2.708 0 00-2.69-2.6c-5.239-.06-10.481.04-15.716-.04-.9-.14-.83-1.16-.83-1.83.015-3.83-.012-7.65.018-11.48-2.9.04-6.129-.48-8.6 1.4M76.4 79.92c-.045 1.45-.041 2.89-.033 4.34 3.468 0 6.941.02 10.413-.01-.007-1.44 0-2.88-.03-4.31-3.454.01-6.9.03-10.35-.02m-21.163 6.86a4.9 4.9 0 00.928 9.72q18.145 0 36.288.01a4.9 4.9 0 002.753-9.01c-1.234-.88-2.817-.84-4.258-.82-11.9.08-23.816-.12-35.711.1zm.179 3.38c.483-.01.973-.01 1.474 0a1.815 1.815 0 01.629 2.16 1.552 1.552 0 01-2.6.21 1.731 1.731 0 01.5-2.37zm35.783.63c.371-.77 1.231-.62 1.95-.64q.4.42.83.84c.019.75-.037 1.74-.905 2.02a1.516 1.516 0 01-1.875-2.22z" fill-rule="evenodd"/></svg>