<svg xmlns="http://www.w3.org/2000/svg" width="100" height="84"><path d="M68.27.46a4.141 4.141 0 014.26 7.08c-2.03 1.21-4.26 2.06-6.3 3.26a3.6 3.6 0 00-1.2 4.66c3.01 6.01 6.06 12 9.08 18.01a2.323 2.323 0 01-1.12 3.31q-18.945 9.555-37.91 19.09a9.99 9.99 0 01-2.37 1.04 1.339 1.339 0 01-.8-2.06c13.41-6.68 26.75-13.5 40.16-20.19-3.01-6.09-6.11-12.14-9.15-18.21a5.983 5.983 0 011.92-7.53c2.13-1.3 4.52-2.13 6.6-3.5a1.772 1.772 0 00-.74-3 2.039 2.039 0 00-1.68.26Q37.04 18.715 5.05 34.73c-.93.54-2.19.78-2.69 1.82a1.931 1.931 0 00.59 1.79c5.71 7.42 11.35 14.9 17.08 22.31q20.91-.015 41.83 0c-.61-1.65-2.09-3.24-1.57-5.11.16-1.05 1.09-1.59 1.86-2.16-.88-1.99-2.02-3.86-2.98-5.81a1.517 1.517 0 01-.22-1.51 1.123 1.123 0 011.93-.16c1.23 2.09 2.24 4.3 3.41 6.42a3.477 3.477 0 014.55.42c1.68 2.48 2.64 5.43 4.4 7.85a3.214 3.214 0 003.3-1.67 6.638 6.638 0 00.48-3.09q-.015-9.315 0-18.62a1.2 1.2 0 011.03-1.45c1.63-.13 3.27-.01 4.91-.04 2.17.02 4.43-.17 6.5.62a10.37 10.37 0 016.38 6.31 88.007 88.007 0 014.1 31.09c.03.78-.86 1.04-1.49 1.02-1.76.03-3.53-.01-5.29.01.27 2.37.01 4.97-1.76 6.74a7.447 7.447 0 11-2.18-11.56 12.169 12.169 0 012.9 2.41c1.87.09 3.75 0 5.62.03a89.414 89.414 0 00-3.26-26.34 14.143 14.143 0 00-2.09-4.9 8.967 8.967 0 00-6.99-3.2q-3-.015-6 .01-.015 8.415 0 16.83c.08 2.29-.1 4.87-1.79 6.6-1.62 1.52-4.7 2.32-6.38.53-1.58-2.49-2.67-5.25-4.24-7.74a1.563 1.563 0 00-1.66.24c-.96.48-1.9 1-2.85 1.52.25 1.97 1.67 3.54 2.36 5.37a1.071 1.071 0 01-.86 1.56H21.71a3.383 3.383 0 00-1.77.39c.01 1.86-.03 3.71 0 5.57a3.542 3.542 0 002.46 3.46c1.1.2 2.24-.02 3.34.19a1.158 1.158 0 01.03 2.15 9.474 9.474 0 01-3.56-.02 5.5 5.5 0 01-4.48-5.08c-.08-2.22-.03-4.44-.02-6.66a2.665 2.665 0 00-.4-1.92Q9.51 50.78 1.74 40.58a6.6 6.6 0 01-1.7-3.03 3.8 3.8 0 012.15-3.99Q35.22 16.985 68.27.46m16.29 71.16a5.122 5.122 0 106.25 3.71 5.178 5.178 0 00-6.25-3.71zM47.52 22.25a1.359 1.359 0 011.63 1.02c1.69 3.44 3.47 6.85 5.15 10.29.66 1.21-1.51 2.32-2.06.98-1.8-3.5-3.56-7.01-5.33-10.53a1.153 1.153 0 01.61-1.76zm-7.34 5.32c-.48-.73-.18-2.03.86-1.93.75-.15 1.08.62 1.37 1.17 1.63 3.29 3.34 6.54 4.95 9.85a2.338 2.338 0 01.04 1.65c-.61.16-1.51.47-1.88-.25-1.87-3.45-3.55-7-5.34-10.49zm-6.48 1.6a1.175 1.175 0 011.62.5c1.49 2.84 2.86 5.75 4.35 8.61.43.98 1.3 1.94 1.02 3.1a1.234 1.234 0 01-2.18-.24q-2.55-5.04-5.08-10.07a1.3 1.3 0 01.27-1.9zm-6.28 3.24a1.255 1.255 0 011.2.83c1.74 3.49 3.54 6.96 5.25 10.47a1.134 1.134 0 01-1.24 1.62c-.6.01-.8-.66-1.06-1.06-1.69-3.35-3.37-6.72-5.06-10.07a1.155 1.155 0 01.91-1.79zm7.06 36.91a7.431 7.431 0 016.92 2.03 1.138 1.138 0 01-1.58 1.61 5.391 5.391 0 00-4.77-1.38 5.118 5.118 0 102.23 9.99 8.2 8.2 0 002.76-1.51 1.14 1.14 0 011.38 1.71 7.465 7.465 0 01-7.73 1.85 7.459 7.459 0 01.79-14.3zm13.36-.04a7.719 7.719 0 015.24.86 7.409 7.409 0 013.58 7.79 7.284 7.284 0 01-3.77 5.19 7.449 7.449 0 11-5.05-13.84m.45 2.29a5.12 5.12 0 106.16 5.03 5.112 5.112 0 00-6.16-5.03zm11.52.89c4.54-.18 9.1 0 13.65-.08.77.05 1.72-.18 2.33.45a1.223 1.223 0 01-.93 1.91c-4.58.08-9.18-.01-13.76.04-.72-.01-1.7 0-1.99-.81a1.142 1.142 0 01.7-1.51z" fill-rule="evenodd"/></svg>