<svg height="512" width="512" xmlns="http://www.w3.org/2000/svg"><linearGradient gradientUnits="userSpaceOnUse" id="a" x1="8.976" x2="577.923" y1="-78.99" y2="557.689"><stop offset="0" stop-color="#517fa6"/><stop offset="1" stop-color="#426699"/></linearGradient><path d="M271.06 214.363v-.525c-.1.17-.247.36-.347.525h.347z" fill="url(#a)"/><linearGradient gradientUnits="userSpaceOnUse" id="b" x1="-20.119" x2="548.828" y1="-52.99" y2="583.689"><stop offset="0" stop-color="#517fa6"/><stop offset="1" stop-color="#426699"/></linearGradient><path d="M256 7.098C118.535 7.098 7.098 118.535 7.098 256c0 137.465 111.437 248.902 248.902 248.902 137.465 0 248.902-111.437 248.902-248.902C504.902 118.535 393.465 7.098 256 7.098zm-68.545 345.704h-53.822V190.89h53.822v161.912zm-26.901-184.008h-.363c-18.058 0-29.755-12.445-29.755-27.992 0-15.886 12.052-27.969 30.465-27.969 18.421 0 29.747 12.083 30.102 27.969.001 15.547-11.68 27.992-30.449 27.992zm221.01 184.011h-53.822v-86.627c0-21.759-7.792-36.613-27.271-36.613-14.875 0-23.725 10.008-27.624 19.687-1.42 3.464-1.783 8.276-1.783 13.125v90.425h-53.83s.718-146.718 0-161.912h53.827v22.948c7.149-11.015 19.927-26.754 48.518-26.754 35.43 0 61.983 23.138 61.986 72.871v92.85z" fill="url(#b)"/></svg>