<?xml version="1.0" encoding="UTF-8" standalone="no" ?>
<!DOCTYPE svg PUBLIC "-//W3C//DTD SVG 1.1//EN" "http://www.w3.org/Graphics/SVG/1.1/DTD/svg11.dtd">
<svg xmlns="http://www.w3.org/2000/svg" xmlns:xlink="http://www.w3.org/1999/xlink" version="1.1" width="1280" height="1024" viewBox="0 0 1280 1024" xml:space="preserve">
<desc>Created with Fabric.js 4.4.0</desc>
<defs>
</defs>
<g transform="matrix(1 0 0 1 640 512)" id="background-logo"  >
<rect style="stroke: none; stroke-width: 0; stroke-dasharray: none; stroke-linecap: butt; stroke-dashoffset: 0; stroke-linejoin: miter; stroke-miterlimit: 4; fill: rgb(255,255,255); fill-opacity: 0; fill-rule: nonzero; opacity: 1;"  paint-order="stroke"  x="-640" y="-512" rx="0" ry="0" width="1280" height="1024" />
</g>
<g transform="matrix(1.9211538461538462 0 0 1.9211538461538462 641.3144736842105 638.2153340321818)" id="logo-logo"  >
<g style=""  paint-order="stroke"   >
		<g transform="matrix(2.1498133674263187 0 0 -2.1498133674263187 0 -2.842171e-14)"  >
<path style="stroke: none; stroke-width: 1; stroke-dasharray: none; stroke-linecap: butt; stroke-dashoffset: 0; stroke-linejoin: miter; stroke-miterlimit: 4; fill: rgb(28,140,132); fill-rule: nonzero; opacity: 1;"  paint-order="stroke"  transform=" translate(-16.85852283995509, -19.428999999999995)" d="M 0 0 C -15.348 8.098 -13.543 16.679 -13.543 16.679 C -13.543 16.679 -13.645 16.598 -13.834999999999999 16.436999999999998 C -14.405999999999999 15.143999999999998 -14.982999999999999 13.827999999999998 -15.568 12.497999999999998 L -15.56 12.482999999999997 C -17.731 7.783999999999997 -18.952 2.5579999999999963 -18.952 -2.9600000000000026 C -18.952 -23.307000000000002 -2.456000000000003 -39.803000000000004 17.898999999999997 -39.803000000000004 C 23.000999999999998 -39.803000000000004 27.860999999999997 -38.766000000000005 32.268 -36.894000000000005 C 31.968 -19.829 16.803 -8.865 0 0 M 22.971 27.488 C 1.381 38.897 0.285 45.994 1.001 48.727 C 1.1989999999999998 49.516999999999996 1.557 49.940999999999995 1.6149999999999998 50.013999999999996 C -4.0489999999999995 47.13399999999999 -10.209999999999999 37.983999999999995 -9.903 30.140999999999995 C -9.859 28.920999999999996 -9.677 27.706999999999994 -9.341000000000001 26.493999999999996 C -7.418000000000001 19.360999999999997 -0.49700000000000166 12.248999999999997 13.375 4.216999999999995 C 37.655 -9.852000000000006 40.162 -23.154000000000003 40.468 -32.078 C 41.967000000000006 -30.916000000000004 43.370000000000005 -29.637000000000004 44.67100000000001 -28.263 C 44.718 -28.213 44.76500000000001 -28.163 44.812000000000005 -28.113000000000003 C 55.894000000000005 -16.283 55.11300000000001 2.3729999999999976 43.355000000000004 13.529999999999998 C 38.678000000000004 17.968999999999998 32.109 22.662 22.971000000000004 27.488 M 42.885 25.935 C 39.246 28.939 33.359 33.03 23.82 38.478 C 11.236 45.668 7.367 53.297 7.367 59.961 L 7.367 59.967 C 7.367 70.378 16.785 78.405 17.082 78.654 L 17.089000000000002 78.661 C 14.483000000000002 65.415 20.343000000000004 58.185 25.521 54.492000000000004 C 25.551000000000002 54.471000000000004 25.582 54.45 25.611 54.428000000000004 C 39.64 43.853 41.468 38.97 42.885 25.935" stroke-linecap="round" />
</g>
</g>
</g>
<g transform="matrix(1.554246110347255 1.1292258981541936 -1.1292258981541938 1.5542461103472551 657.1922053702198 661.8065606533463)" id="text-logo-path-group"  >
<g style=""  paint-order="stroke"   >
		<g transform="matrix(1 0 0 1 0 0)" id="text-logo-path-0"  >
<path style="stroke: none; stroke-width: 0; stroke-dasharray: none; stroke-linecap: butt; stroke-dashoffset: 0; stroke-linejoin: miter; stroke-miterlimit: 4; fill: rgb(255,255,255); fill-rule: nonzero; opacity: 1;"  paint-order="stroke"  transform=" translate(-67.69500000000001, 15.030000000000003)" d="M 2.46 -3.77 L 2.09 -4.22 Q 1.03 -5.54 1.03 -6.58 Q 1.03 -7.63 2.79 -9.35 L 2.79 -9.35 Q 3.81 -10.34 4.96 -10.34 Q 6.11 -10.34 8.16 -8.28 L 8.16 -8.28 Q 8.74 -7.59 9.8 -6.95 Q 10.87 -6.32 11.77 -6.32 L 11.77 -6.32 Q 15.58 -6.32 15.58 -9.43 L 15.58 -9.43 Q 15.58 -10.38 14.54 -11.01 Q 13.49 -11.65 11.93 -11.93 Q 10.38 -12.22 8.57 -12.86 Q 6.77 -13.49 5.21 -14.35 Q 3.65 -15.22 2.6 -17.08 Q 1.56 -18.95 1.56 -21.57 L 1.56 -21.57 Q 1.56 -25.18 4.24 -27.87 Q 6.93 -30.55 11.57 -30.55 L 11.57 -30.55 Q 14.03 -30.55 16.06 -29.92 Q 18.09 -29.28 18.87 -28.63 L 18.87 -28.63 L 19.89 -27.85 Q 21.16 -26.66 21.16 -25.84 Q 21.16 -25.02 20.18 -23.58 L 20.18 -23.58 Q 18.78 -21.53 17.31 -21.53 L 17.31 -21.53 Q 16.45 -21.53 15.17 -22.35 L 15.17 -22.35 Q 15.05 -22.43 14.7 -22.76 Q 14.35 -23.09 14.07 -23.3 L 14.07 -23.3 Q 13.21 -23.83 11.87 -23.83 Q 10.54 -23.83 9.66 -23.19 Q 8.78 -22.56 8.78 -21.43 Q 8.78 -20.3 9.82 -19.6 Q 10.87 -18.91 12.43 -18.66 Q 13.99 -18.41 15.83 -17.9 Q 17.68 -17.39 19.24 -16.65 Q 20.79 -15.91 21.84 -14.09 Q 22.89 -12.26 22.89 -9.6 Q 22.89 -6.93 21.82 -4.9 Q 20.75 -2.87 19.03 -1.76 L 19.03 -1.76 Q 15.71 0.41 11.93 0.41 L 11.93 0.41 Q 10.01 0.41 8.28 -0.06 Q 6.56 -0.53 5.5 -1.23 L 5.5 -1.23 Q 3.32 -2.54 2.46 -3.77 L 2.46 -3.77 Z M 47.74 -23.99 Q 48.81 -21.82 48.81 -19.15 Q 48.81 -16.49 47.74 -14.33 Q 46.67 -12.18 44.99 -10.91 L 44.99 -10.91 Q 41.59 -8.28 37.94 -8.28 L 37.94 -8.28 L 32.81 -8.28 L 32.81 -3.65 Q 32.81 -2.71 32.75 -2.24 Q 32.69 -1.76 32.36 -1.15 L 32.36 -1.15 Q 31.79 -0.04 29.16 -0.04 L 29.16 -0.04 Q 26.29 -0.04 25.8 -1.56 L 25.8 -1.56 Q 25.55 -2.26 25.55 -3.69 L 25.55 -3.69 L 25.55 -26.45 Q 25.55 -27.4 25.61 -27.87 Q 25.67 -28.34 26 -28.96 L 26 -28.96 Q 26.58 -30.06 29.2 -30.06 L 29.2 -30.06 L 37.98 -30.06 Q 41.59 -30.06 44.99 -27.44 L 44.99 -27.44 Q 46.67 -26.17 47.74 -23.99 Z M 37.98 -15.54 Q 39.21 -15.54 40.4 -16.45 Q 41.59 -17.35 41.59 -19.15 Q 41.59 -20.96 40.4 -21.88 Q 39.21 -22.8 37.94 -22.8 L 37.94 -22.8 L 32.81 -22.8 L 32.81 -15.54 L 37.98 -15.54 Z M 65.42 -27.93 L 65.42 -27.93 L 76.49 -5.04 Q 77.19 -3.65 77.19 -2.95 L 77.19 -2.95 Q 77.19 -1.48 74.81 -0.29 L 74.81 -0.29 Q 73.41 0.41 72.61 0.41 Q 71.81 0.41 71.3 0.04 Q 70.79 -0.33 70.56 -0.74 Q 70.34 -1.15 69.93 -1.97 L 69.93 -1.97 L 67.79 -6.4 L 56.43 -6.4 L 54.3 -1.97 Q 53.89 -1.15 53.67 -0.78 Q 53.44 -0.41 52.93 -0.02 Q 52.41 0.37 51.61 0.37 Q 50.82 0.37 49.42 -0.33 L 49.42 -0.33 Q 47.04 -1.48 47.04 -2.95 L 47.04 -2.95 Q 47.04 -3.65 47.74 -5.04 L 47.74 -5.04 L 58.81 -27.97 Q 59.26 -28.91 60.19 -29.49 Q 61.11 -30.06 62.13 -30.06 L 62.13 -30.06 Q 64.35 -30.06 65.42 -27.93 Z M 64.84 -12.47 L 62.09 -18.09 L 59.39 -12.47 L 64.84 -12.47 Z M 96.18 -7.87 L 96.18 -7.87 L 96.91 -8.41 Q 98.31 -9.23 98.88 -9.23 L 98.88 -9.23 Q 100.15 -9.23 101.63 -6.93 L 101.63 -6.93 Q 102.53 -5.5 102.53 -4.63 Q 102.53 -3.77 101.98 -3.2 Q 101.43 -2.62 100.69 -2.17 Q 99.95 -1.72 99.27 -1.31 Q 98.6 -0.9 96.5 -0.25 Q 94.41 0.41 92.46 0.41 Q 90.52 0.41 88.53 -0.1 Q 86.54 -0.62 84.43 -1.83 Q 82.31 -3.03 80.63 -4.78 Q 78.95 -6.52 77.86 -9.25 Q 76.78 -11.98 76.78 -15.17 Q 76.78 -18.37 77.84 -20.98 Q 78.91 -23.58 80.57 -25.28 Q 82.23 -26.99 84.36 -28.13 L 84.36 -28.13 Q 88.38 -30.35 92.44 -30.35 L 92.44 -30.35 Q 94.37 -30.35 96.36 -29.75 Q 98.35 -29.16 99.37 -28.55 L 99.37 -28.55 L 100.36 -27.97 Q 101.1 -27.52 101.51 -27.23 L 101.51 -27.23 Q 102.57 -26.37 102.57 -25.28 Q 102.57 -24.2 101.71 -23.01 L 101.71 -23.01 Q 100.11 -20.79 98.84 -20.79 L 98.84 -20.79 Q 98.1 -20.79 96.75 -21.7 L 96.75 -21.7 Q 95.03 -23.09 92.16 -23.09 L 92.16 -23.09 Q 89.49 -23.09 86.91 -21.24 L 86.91 -21.24 Q 85.68 -20.34 84.86 -18.7 Q 84.04 -17.06 84.04 -14.99 Q 84.04 -12.92 84.86 -11.28 Q 85.68 -9.64 86.95 -8.69 L 86.95 -8.69 Q 89.45 -6.89 92.16 -6.89 L 92.16 -6.89 Q 93.43 -6.89 94.56 -7.22 Q 95.68 -7.55 96.18 -7.87 Z M 119.35 -30.43 L 119.35 -30.43 Q 125.42 -30.43 129.89 -26.04 Q 134.36 -21.65 134.36 -15.15 Q 134.36 -8.65 130.09 -4.08 Q 125.83 0.49 119.59 0.49 Q 113.36 0.49 108.99 -4.02 Q 104.62 -8.53 104.62 -14.76 L 104.62 -14.76 Q 104.62 -18.17 105.85 -21.14 Q 107.09 -24.12 109.14 -26.13 Q 111.19 -28.13 113.85 -29.28 Q 116.52 -30.43 119.35 -30.43 Z M 111.88 -14.97 Q 111.88 -11.32 114.24 -9.04 Q 116.6 -6.77 119.51 -6.77 Q 122.42 -6.77 124.76 -8.98 Q 127.1 -11.2 127.1 -14.93 Q 127.1 -18.66 124.74 -20.92 Q 122.38 -23.17 119.47 -23.17 Q 116.56 -23.17 114.22 -20.9 Q 111.88 -18.62 111.88 -14.97 Z" stroke-linecap="round" />
</g>
</g>
</g>
</svg>