<?xml version="1.0" encoding="UTF-8" standalone="no" ?>
<!DOCTYPE svg PUBLIC "-//W3C//DTD SVG 1.1//EN" "http://www.w3.org/Graphics/SVG/1.1/DTD/svg11.dtd">
<svg xmlns="http://www.w3.org/2000/svg" xmlns:xlink="http://www.w3.org/1999/xlink" version="1.1" width="1280" height="1024" viewBox="0 0 1280 1024" xml:space="preserve">
<desc>Created with Fabric.js 4.4.0</desc>
<defs>
</defs>
<g transform="matrix(1 0 0 1 640 512)" id="background-logo"  >
<rect style="stroke: none; stroke-width: 0; stroke-dasharray: none; stroke-linecap: butt; stroke-dashoffset: 0; stroke-linejoin: miter; stroke-miterlimit: 4; fill: rgb(255,255,255); fill-opacity: 0; fill-rule: nonzero; opacity: 1;"  paint-order="stroke"  x="-640" y="-512" rx="0" ry="0" width="1280" height="1024" />
</g>
<g transform="matrix(1.9211538461538462 0 0 1.9211538461538462 651.1278177029109 347.2005029230769)" id="tagline-ad6c75c3-1820-4b49-aa22-77ffca0012d3-logo-path-group"  >
<g style=""  paint-order="stroke"   >
		<g transform="matrix(1 0 0 1 0 0)" id="tagline-ad6c75c3-1820-4b49-aa22-77ffca0012d3-logo-path-0"  >
<path style="stroke: none; stroke-width: 0; stroke-dasharray: none; stroke-linecap: butt; stroke-dashoffset: 0; stroke-linejoin: miter; stroke-miterlimit: 4; fill: rgb(84,84,85); fill-rule: nonzero; opacity: 1;"  paint-order="stroke"  transform=" translate(-114.645, 52.67)" d="M 24.42 -99.79 L 24.42 -5.15 Q 24.42 1.06 17.16 1.06 L 17.16 1.06 Q 9.77 1.06 9.77 -5.15 L 9.77 -5.15 L 9.77 -99.79 Q 9.77 -106 17.16 -106 L 17.16 -106 Q 24.42 -106 24.42 -99.79 L 24.42 -99.79 Z M 58.74 -73.66 L 58.74 -5.54 Q 58.74 0.79 51.48 0.79 L 51.48 0.79 Q 44.09 0.79 44.09 -5.54 L 44.09 -5.54 L 44.09 -73.66 Q 44.09 -79.99 51.48 -79.99 L 51.48 -79.99 Q 58.74 -79.99 58.74 -73.66 L 58.74 -73.66 Z M 61.51 -96.62 L 61.51 -96.62 Q 61.51 -92.4 58.61 -89.5 Q 55.7 -86.59 51.48 -86.59 L 51.48 -86.59 Q 47.26 -86.59 44.29 -89.5 Q 41.32 -92.4 41.32 -96.62 L 41.32 -96.62 Q 41.32 -100.98 44.29 -103.88 Q 47.26 -106.79 51.48 -106.79 L 51.48 -106.79 Q 55.7 -106.79 58.61 -103.88 Q 61.51 -100.98 61.51 -96.62 Z M 92.8 -57.42 L 92.8 -5.54 Q 92.8 0.79 85.54 0.79 L 85.54 0.79 Q 78.28 0.79 78.28 -5.54 L 78.28 -5.54 L 78.28 -58.61 Q 78.28 -64.02 79.99 -67.98 Q 81.71 -71.94 85.4 -74.45 L 85.4 -74.45 Q 92.4 -79.46 99.4 -79.46 L 99.4 -79.46 L 120.65 -79.46 Q 127.38 -79.46 134.64 -74.45 L 134.64 -74.45 Q 141.77 -69.43 141.77 -58.61 L 141.77 -58.61 L 141.77 -5.54 Q 141.77 0.79 134.51 0.79 L 134.51 0.79 Q 127.25 0.79 127.25 -5.54 L 127.25 -5.54 L 127.25 -57.42 Q 127.25 -60.85 125.14 -64.02 L 125.14 -64.02 L 125.27 -63.89 Q 123.55 -67.06 118.27 -67.06 L 118.27 -67.06 L 101.77 -67.06 Q 96.36 -67.06 94.64 -63.89 L 94.64 -63.89 Q 92.8 -61.12 92.8 -57.42 L 92.8 -57.42 Z M 216.61 -69.96 L 174.5 -22.04 L 174.5 -5.28 Q 174.5 0.92 167.24 0.92 L 167.24 0.92 Q 159.98 0.92 159.98 -5.28 L 159.98 -5.28 L 159.98 -99.26 Q 159.98 -105.6 167.24 -105.6 L 167.24 -105.6 Q 174.5 -105.6 174.5 -99.26 L 174.5 -99.26 L 174.5 -43.3 Q 177.8 -47.26 181.83 -51.81 Q 185.86 -56.36 189.88 -61.05 Q 193.91 -65.74 197.87 -70.29 Q 201.83 -74.84 205.26 -78.8 L 205.26 -78.8 L 205.26 -78.67 Q 207.64 -81.44 210.01 -81.44 L 210.01 -81.44 Q 211.33 -81.44 212.59 -80.85 Q 213.84 -80.26 215.29 -79.2 L 215.29 -79.2 L 215.16 -79.2 Q 218.33 -76.56 218.33 -73.92 L 218.33 -73.92 Q 218.33 -73 217.93 -71.87 Q 217.54 -70.75 216.61 -69.96 L 216.61 -69.96 Z M 204.07 -36.3 L 218.59 -8.84 Q 219.52 -7.13 219.52 -5.28 L 219.52 -5.28 Q 219.52 -1.85 215.56 -0.13 L 215.56 -0.13 Q 212.92 1.45 210.8 1.45 L 210.8 1.45 Q 209.35 1.45 208.03 0.46 Q 206.71 -0.53 205.92 -1.98 L 205.92 -1.98 L 192.72 -27.46 Q 191.53 -29.44 191.53 -31.42 L 191.53 -31.42 Q 191.53 -34.72 194.96 -36.96 L 194.96 -36.96 Q 195.89 -37.62 196.88 -38.15 Q 197.87 -38.68 199.06 -38.94 L 199.06 -38.94 Q 200.51 -39.2 201.83 -38.41 Q 203.15 -37.62 204.07 -36.3 L 204.07 -36.3 Z" stroke-linecap="round" />
</g>
</g>
</g>
<g transform="matrix(0.9900651394087797 -0.2468509638934465 0.2468509638934465 0.9900651394087797 626.7947873961328 535.6868050305674)" id="logo-logo"  >
<g style=""  paint-order="stroke"   >
		<g transform="matrix(0.6791517377238381 0 0 0.6791517377238381 -69.26668573045413 52.586719051956806)"  >
<linearGradient id="SVGID_82_6_84017" gradientUnits="userSpaceOnUse" gradientTransform="matrix(1 0 0 1 51.80000000000001 270.5)"  x1="0" y1="0" x2="0" y2="114">
<stop offset="0%" style="stop-color:rgb(180,236,81);stop-opacity: 1"/>
<stop offset="100%" style="stop-color:rgb(66,147,33);stop-opacity: 1"/>
</linearGradient>
<path style="stroke: none; stroke-width: 1; stroke-dasharray: none; stroke-linecap: butt; stroke-dashoffset: 0; stroke-linejoin: miter; stroke-miterlimit: 4; fill: url(#SVGID_82_6_84017); fill-rule: nonzero; opacity: 1;"  paint-order="stroke"  transform=" translate(-148.01500000000001, -327.425)" d="M 161.15 343.35 C 112 343.35 69.76 313.24 51.900000000000006 270.5 C 51.84 271.99 51.800000000000004 273.49 51.800000000000004 275 C 51.800000000000004 335.3 100.85 384.35 161.15 384.35 C 194.36 384.35 224.16 369.47 244.23000000000002 346.02000000000004 C 237.97000000000003 337.72 233.32000000000002 329.33000000000004 229.89000000000001 321.29 C 210.49 335.17 186.76 343.35 161.15 343.35 z" stroke-linecap="round" />
</g>
		<g transform="matrix(0.6791517377238381 0 0 0.6791517377238381 -60.35961069020601 -32.531368236971815)"  >
<path style="stroke: none; stroke-width: 1; stroke-dasharray: none; stroke-linecap: butt; stroke-dashoffset: 0; stroke-linejoin: miter; stroke-miterlimit: 4; fill: rgb(255,214,0); fill-rule: nonzero; opacity: 1;"  paint-order="stroke"  transform=" translate(-161.13, -202.095)" d="M 194.49 175.93 L 189.87 173.09 C 181.35 168.36 171.56 165.65 161.15 165.65 C 128.42000000000002 165.65 101.80000000000001 192.27 101.80000000000001 225 C 101.80000000000001 229.66 102.36000000000001 234.19 103.38000000000001 238.54 C 115.51 219.39 136.86 206.64999999999998 161.15 206.64999999999998 C 185.44 206.64999999999998 206.8 219.39999999999998 218.92000000000002 238.53999999999996 C 219.83 234.66999999999996 220.35000000000002 230.64999999999998 220.46 226.51999999999995 C 219.94 221.36999999999995 219.32000000000002 216.99999999999994 218.79000000000002 213.66999999999996 C 217.92000000000002 208.24999999999997 216.32000000000002 203.06999999999996 214.12000000000003 198.25999999999996 C 209.56 189.27 202.78 181.58 194.49 175.93 z" stroke-linecap="round" />
</g>
		<g transform="matrix(0.6791517377238381 0 0 0.6791517377238381 69.3346009042267 -52.579927534579525)"  >
<linearGradient id="SVGID_84_7_84018" gradientUnits="userSpaceOnUse" gradientTransform="matrix(1 0 0 1 255.99 115.64999999999999)"  x1="0" y1="0" x2="0" y2="114">
<stop offset="0%" style="stop-color:rgb(23,234,217);stop-opacity: 1"/>
<stop offset="100%" style="stop-color:rgb(96,120,234);stop-opacity: 1"/>
</linearGradient>
<path style="stroke: none; stroke-width: 1; stroke-dasharray: none; stroke-linecap: butt; stroke-dashoffset: 0; stroke-linejoin: miter; stroke-miterlimit: 4; fill: url(#SVGID_84_7_84018); fill-rule: nonzero; opacity: 1;"  paint-order="stroke"  transform=" translate(-352.095, -172.575)" d="M 270.7 178.29 C 289.98 164.66 313.5 156.64999999999998 338.85 156.64999999999998 C 387.99 156.64999999999998 430.23 186.76 448.1 229.49999999999997 C 448.16 228.00999999999996 448.20000000000005 226.50999999999996 448.20000000000005 224.99999999999997 C 448.20000000000005 164.7 399.15000000000003 115.64999999999998 338.85 115.64999999999998 C 305.76 115.64999999999998 276.06 130.42999999999998 255.99 153.71999999999997 C 258.79 157.38999999999996 261.67 161.58999999999997 264.46000000000004 166.31999999999996 C 266.56 169.87 268.68 173.87 270.7 178.29 z" stroke-linecap="round" />
</g>
		<g transform="matrix(0.6791517377238381 0 0 0.6791517377238381 60.59536422556869 32.53136823697184)"  >
<path style="stroke: none; stroke-width: 1; stroke-dasharray: none; stroke-linecap: butt; stroke-dashoffset: 0; stroke-linejoin: miter; stroke-miterlimit: 4; fill: rgb(255,0,0); fill-rule: nonzero; opacity: 1;"  paint-order="stroke"  transform=" translate(-339.2271294002024, -297.895)" d="M 307.83 325.57 C 308.08 325.71999999999997 308.33 325.87 308.58 326.02 C 309.06 326.29999999999995 309.53999999999996 326.58 310.03 326.84999999999997 C 310.42999999999995 327.07 310.84 327.28999999999996 311.25 327.51 C 319.5 331.86 328.89 334.34 338.85 334.34 C 371.58000000000004 334.34 398.20000000000005 307.71999999999997 398.20000000000005 274.98999999999995 C 398.20000000000005 270.3299999999999 397.64000000000004 265.79999999999995 396.62000000000006 261.44999999999993 C 384.49000000000007 280.5999999999999 363.14000000000004 293.3399999999999 338.8500000000001 293.3399999999999 C 314.99000000000007 293.3399999999999 293.9500000000001 281.0399999999999 281.7200000000001 262.44999999999993 C 281.5200000000001 263.93999999999994 281.2900000000001 265.44999999999993 281.05000000000007 266.9799999999999 C 279.39000000000004 277.2499999999999 280.3400000000001 287.4299999999999 283.7800000000001 296.4299999999999 C 285.9800000000001 302.1799999999999 288.8800000000001 307.3499999999999 292.4500000000001 311.9199999999999 C 296.74 317.32 301.94 321.95 307.83 325.57 z" stroke-linecap="round" />
</g>
		<g transform="matrix(0.6791517377238381 0 0 0.6791517377238381 0 -2.842171e-14)"  >
<path style="stroke: none; stroke-width: 1; stroke-dasharray: none; stroke-linecap: butt; stroke-dashoffset: 0; stroke-linejoin: miter; stroke-miterlimit: 4; fill: rgb(84,84,85); fill-rule: nonzero; opacity: 1;"  paint-order="stroke"  transform=" translate(-250.00499999999994, -249.99499999999992)" d="M 447.18 260.05 C 446.71 256.65000000000003 446.09000000000003 253.3 445.32 250 C 437.82 218.05 416.27 191.46 387.58 177.12 C 382.93 174.8 378.09 172.79 373.09 171.14000000000001 C 362.32 167.58 350.80999999999995 165.65 338.85999999999996 165.65 C 326.90999999999997 165.65 315.4 167.58 304.62999999999994 171.14000000000001 C 299.62999999999994 172.79000000000002 294.78999999999996 174.79000000000002 290.13999999999993 177.12 C 284.55999999999995 179.91 279.24999999999994 183.16 274.25999999999993 186.83 C 275.29999999999995 189.59 276.2799999999999 192.49 277.19999999999993 195.53 C 277.87999999999994 197.78 278.5199999999999 200.11 279.10999999999996 202.52 C 279.83 205.46 280.47999999999996 208.5 281.03999999999996 211.66000000000003 C 282.33 218.92000000000002 283.15999999999997 226.77000000000004 283.34 235.21000000000004 C 295.76 217.94000000000003 316.01 206.66000000000003 338.85999999999996 206.66000000000003 C 363.15 206.66000000000003 384.50999999999993 219.41000000000003 396.62999999999994 238.55 C 397.7699999999999 240.34 398.81999999999994 242.20000000000002 399.78999999999996 244.10000000000002 C 400.77 246.02 401.65999999999997 247.99 402.45 250.01000000000002 C 405.51 257.76 407.21 266.19 407.21 275.01 C 407.21 293.64 399.71 310.55 387.58 322.89 C 383.81 326.71999999999997 379.59999999999997 330.11 375.03 332.96999999999997 C 365.21 339.11999999999995 353.72999999999996 342.85999999999996 341.41999999999996 343.30999999999995 C 340.56999999999994 343.3299999999999 339.71999999999997 343.35999999999996 338.85999999999996 343.35999999999996 C 328.31999999999994 343.35999999999996 318.34 340.96 309.41999999999996 336.67999999999995 L 309.40999999999997 336.67999999999995 L 309.38 336.65999999999997 L 304.12 333.53 L 303.73 333.29999999999995 L 299.12 330.55999999999995 L 298.83 330.38999999999993 C 295.91999999999996 328.2899999999999 293.21 325.9699999999999 290.7 323.4599999999999 C 290.58 323.3399999999999 290.46999999999997 323.2299999999999 290.34999999999997 323.1099999999999 C 290.28 323.0299999999999 290.2 322.9599999999999 290.12999999999994 322.8799999999999 C 289.7199999999999 322.45999999999987 289.31999999999994 322.02999999999986 288.91999999999996 321.5999999999999 C 283.71 315.9599999999999 279.47999999999996 309.4199999999999 276.37999999999994 302.1199999999999 C 276.03999999999996 301.3099999999999 275.69999999999993 300.4899999999999 275.38999999999993 299.6599999999999 C 274.6499999999999 297.7299999999999 274.00999999999993 295.7499999999999 273.4699999999999 293.7299999999999 C 271.13999999999993 285.0599999999999 270.6599999999999 275.69999999999993 272.0799999999999 266.3099999999999 C 272.11999999999995 266.0599999999999 272.1499999999999 265.8099999999999 272.18999999999994 265.5699999999999 C 272.7099999999999 262.34999999999985 273.11999999999995 259.20999999999987 273.44999999999993 256.1199999999999 C 273.49999999999994 255.65999999999988 273.54999999999995 255.2099999999999 273.5899999999999 254.7499999999999 C 273.8499999999999 252.1199999999999 274.0399999999999 249.5299999999999 274.1799999999999 246.9999999999999 C 274.2899999999999 244.78999999999988 274.3599999999999 242.6199999999999 274.3899999999999 240.47999999999988 C 274.39999999999986 239.3399999999999 274.39999999999986 238.19999999999987 274.3899999999999 237.07999999999987 C 274.28999999999985 227.79999999999987 273.3699999999999 219.25999999999988 271.8799999999999 211.47999999999988 C 270.57999999999987 204.66999999999987 268.8499999999999 198.43999999999988 266.8699999999999 192.7799999999999 C 266.32999999999987 191.2399999999999 265.76999999999987 189.7399999999999 265.1999999999999 188.2799999999999 C 264.6099999999999 186.7799999999999 264.0099999999999 185.3299999999999 263.3899999999999 183.91999999999987 C 261.32999999999987 179.19999999999987 259.1399999999999 174.97999999999988 256.96999999999986 171.27999999999986 C 254.75999999999985 167.49999999999986 252.47999999999985 164.08999999999986 250.23999999999987 161.03999999999985 C 249.27999999999986 159.72999999999985 248.32999999999987 158.48999999999984 247.38999999999987 157.30999999999986 C 246.37999999999988 156.04999999999987 245.39999999999986 154.86999999999986 244.42999999999986 153.74999999999986 C 240.22999999999988 148.89999999999986 236.51999999999987 145.44999999999985 234.11999999999986 143.39999999999986 L 231.13999999999987 141.02999999999986 L 230.55999999999986 140.56999999999985 L 227.22999999999985 137.91999999999985 L 226.99999999999986 137.73999999999984 L 226.98999999999987 137.73999999999984 C 208.65999999999985 123.87999999999984 185.84999999999985 115.63999999999984 161.15999999999985 115.63999999999984 C 100.85 115.65 51.8 164.7 51.8 225 C 51.8 226.51 51.839999999999996 228.01 51.9 229.5 C 52.04 233.03 52.35 236.51 52.83 239.95 C 53.3 243.35 53.92 246.7 54.69 250 C 62.19 281.95 83.74 308.54 112.43 322.88 C 117.08000000000001 325.2 121.92 327.21 126.92 328.86 C 137.69 332.42 149.2 334.35 161.15 334.35 C 173.10000000000002 334.35 184.61 332.42 195.38 328.86 C 200.38 327.21000000000004 205.22 325.21000000000004 209.87 322.88 C 215.75 319.94 221.33 316.49 226.56 312.58 C 225.4 309.13 224.44 305.78999999999996 223.67000000000002 302.59 C 222.98000000000002 299.73999999999995 222.43 297 221.98000000000002 294.4 C 220.92000000000002 288.15 220.51000000000002 282.7 220.39000000000001 278.45 C 220.32000000000002 275.90999999999997 220.36 273.8 220.43 272.19 C 220.5 270.45 220.61 269.3 220.66 268.86 C 220.78 266.52000000000004 220.98 264.21000000000004 221.23 261.91 C 221.32999999999998 260.29 221.41 258.69 221.47 257.1 C 220.68 258.59000000000003 219.82 260.04 218.92 261.45000000000005 C 206.79 280.6 185.44 293.34000000000003 161.14999999999998 293.34000000000003 C 136.85999999999996 293.34000000000003 115.49999999999997 280.59000000000003 103.37999999999997 261.45000000000005 C 102.23999999999997 259.66 101.18999999999997 257.80000000000007 100.21999999999997 255.90000000000003 C 99.23999999999997 253.98000000000005 98.34999999999997 252.01000000000005 97.55999999999997 249.99000000000004 C 94.49999999999997 242.24000000000004 92.79999999999997 233.81000000000003 92.79999999999997 224.99000000000004 C 92.79999999999997 206.36000000000004 100.29999999999997 189.45000000000005 112.42999999999996 177.11000000000004 C 116.19999999999996 173.28000000000003 120.40999999999997 169.89000000000004 124.98999999999997 167.03000000000003 C 134.80999999999997 160.88000000000002 146.28999999999996 157.15000000000003 158.58999999999997 156.69000000000003 C 159.43999999999997 156.67000000000002 160.29999999999998 156.64000000000001 161.14999999999998 156.64000000000001 C 162.02999999999997 156.64000000000001 162.90999999999997 156.67000000000002 163.77999999999997 156.69000000000003 C 175.71999999999997 157.14000000000001 186.87999999999997 160.67000000000002 196.49999999999997 166.51000000000002 L 196.49999999999997 166.51000000000002 L 196.51999999999998 166.53000000000003 L 197.26999999999998 167.02000000000004 L 199.99999999999997 168.80000000000004 L 200.37999999999997 169.05000000000004 L 204.24999999999997 171.58000000000004 C 206.64999999999998 173.38000000000005 208.92999999999998 175.44000000000005 211.07999999999998 177.72000000000003 C 212.64999999999998 179.38000000000002 214.14999999999998 181.17000000000002 215.57 183.08000000000004 C 218.26 186.68000000000004 220.56 190.63000000000005 222.45999999999998 194.82000000000005 C 222.89 195.77000000000004 223.29 196.74000000000004 223.67999999999998 197.71000000000004 C 224.80999999999997 200.56000000000003 225.76 203.50000000000003 226.51 206.53000000000003 C 226.98 208.41000000000003 227.37 210.31000000000003 227.67999999999998 212.24000000000004 C 228.26 215.82000000000005 228.92 220.57000000000005 229.48 226.19000000000003 C 229.5 226.37000000000003 229.51999999999998 226.55000000000004 229.53 226.73000000000002 C 229.61 227.52 229.68 228.33 229.75 229.15 C 230.01 232.20000000000002 230.23 235.47 230.39 238.91 C 230.41 239.35 230.42999999999998 239.79 230.45 240.23 C 230.69 246.23999999999998 230.70999999999998 252.75 230.38 259.56 C 230.32999999999998 260.61 230.26999999999998 261.67 230.2 262.74 C 230.06 264.98 229.86999999999998 267.24 229.64999999999998 269.52 C 229.64 269.57 229.64 269.62 229.64 269.68 C 229.64 269.71 229.60999999999999 269.98 229.57999999999998 270.41 C 229.54 270.93 229.48999999999998 271.72 229.45999999999998 272.76000000000005 C 229.42 274.01000000000005 229.40999999999997 275.61000000000007 229.45 277.52000000000004 C 229.54999999999998 281.67 229.95999999999998 287.25000000000006 231.13 293.76000000000005 C 231.82999999999998 297.66 232.81 301.91 234.15 306.36000000000007 C 234.61 307.9000000000001 235.1 309.45000000000005 235.66 311.0400000000001 C 236.17 312.5100000000001 236.74 314.00000000000006 237.34 315.5100000000001 C 240.08 322.3900000000001 243.73 329.5700000000001 248.63 336.7100000000001 C 248.76 336.9000000000001 248.89 337.0900000000001 249.01999999999998 337.2700000000001 C 249.33999999999997 337.7400000000001 249.68999999999997 338.2000000000001 250.01999999999998 338.6700000000001 C 250.35999999999999 339.1400000000001 250.67999999999998 339.61000000000007 251.02999999999997 340.0800000000001 C 251.07999999999998 340.1500000000001 251.12999999999997 340.2100000000001 251.17999999999998 340.2800000000001 C 251.71999999999997 341.0000000000001 252.27999999999997 341.7100000000001 252.84999999999997 342.43000000000006 C 253.05999999999997 342.70000000000005 253.25999999999996 342.9700000000001 253.46999999999997 343.2300000000001 C 253.53999999999996 343.32000000000005 253.60999999999996 343.4100000000001 253.67999999999998 343.51000000000005 L 253.77999999999997 343.62000000000006 L 255.83999999999997 345.95000000000005 L 256.97999999999996 347.24000000000007 L 260.18999999999994 350.87000000000006 L 260.2699999999999 350.96000000000004 L 260.2699999999999 350.96000000000004 L 260.2799999999999 350.96000000000004 C 280.1799999999999 371.54 308.0499999999999 384.35 338.8599999999999 384.35 C 399.1599999999999 384.35 448.2099999999999 335.3 448.2099999999999 275 C 448.2099999999999 273.49 448.1699999999999 271.99 448.1099999999999 270.5 C 447.96 266.97 447.65 263.48 447.18 260.05 z" stroke-linecap="round" />
</g>
</g>
</g>
<g transform="matrix(1.9211538461538462 0 0 1.9211538461538462 655.6171469188906 565.8623545777103)" id="text-logo-path-group"  >
<g style=""  paint-order="stroke"   >
		<g transform="matrix(1 0 0 1 0 0)" id="text-logo-path-0"  >
<path style="stroke: none; stroke-width: 0; stroke-dasharray: none; stroke-linecap: butt; stroke-dashoffset: 0; stroke-linejoin: miter; stroke-miterlimit: 4; fill: rgb(84,84,85); fill-rule: nonzero; opacity: 1;"  paint-order="stroke"  transform=" translate(-116.97500000000001, 47.815)" d="M 64.32 0.12 L 17.29 0.12 Q 12.82 0.12 11.24 -2.18 Q 9.67 -4.47 9.67 -7.25 L 9.67 -7.25 L 9.67 -90.8 Q 9.67 -96.6 16.68 -96.6 L 16.68 -96.6 Q 23.94 -96.6 23.94 -90.8 L 23.94 -90.8 L 23.94 -12.09 L 64.32 -12.09 Q 68.67 -12.09 68.67 -6.17 L 68.67 -6.17 Q 68.92 0.12 64.32 0.12 L 64.32 0.12 Z M 204.93 -35.55 L 188.25 -35.55 Q 186.19 -35.55 185.05 -37.18 Q 183.9 -38.81 183.9 -41.59 L 183.9 -41.59 Q 183.9 -47.76 188.98 -47.76 L 188.98 -47.76 L 201.79 -47.76 Q 206.26 -47.76 208.14 -50.3 Q 210.01 -52.84 210.01 -55.86 L 210.01 -55.86 L 210.01 -75.69 Q 210.01 -78.71 208.14 -81.25 Q 206.26 -83.79 201.79 -83.79 L 201.79 -83.79 L 176.4 -83.79 L 176.4 -4.84 Q 176.4 0.97 169.15 0.97 L 169.15 0.97 Q 162.13 0.97 162.13 -4.84 L 162.13 -4.84 L 162.13 -88.74 Q 162.13 -93.1 164.31 -94.55 Q 166.49 -96 169.63 -96 L 169.63 -96 L 204.93 -96 Q 207.96 -96 211.34 -94.67 Q 214.73 -93.34 217.87 -91.28 L 217.87 -91.28 L 217.75 -91.28 Q 220.89 -88.99 222.59 -85.3 Q 224.28 -81.61 224.28 -76.77 L 224.28 -76.77 L 224.28 -54.89 Q 224.28 -45.1 217.75 -40.26 L 217.75 -40.26 Q 214.61 -37.96 211.34 -36.76 Q 208.08 -35.55 204.93 -35.55 L 204.93 -35.55 Z" stroke-linecap="round" />
</g>
</g>
</g>
<g transform="matrix(1.9211538461538462 0 0 1.9211538461538462 640 786.4699733411392)" id="tagline-eb43aec9-e6cb-4491-a49e-256ac4b21e99-logo-path-group"  >
<g style=""  paint-order="stroke"   >
		<g transform="matrix(1 0 0 1 0 0)" id="tagline-eb43aec9-e6cb-4491-a49e-256ac4b21e99-logo-path-0"  >
<path style="stroke: none; stroke-width: 0; stroke-dasharray: none; stroke-linecap: butt; stroke-dashoffset: 0; stroke-linejoin: miter; stroke-miterlimit: 4; fill: rgb(109,198,196); fill-rule: nonzero; opacity: 1;"  paint-order="stroke"  transform=" translate(0, 0)" d="" stroke-linecap="round" />
</g>
</g>
</g>
</svg>