<?xml version="1.0" encoding="UTF-8" standalone="no" ?>
<!DOCTYPE svg PUBLIC "-//W3C//DTD SVG 1.1//EN" "http://www.w3.org/Graphics/SVG/1.1/DTD/svg11.dtd">
<svg xmlns="http://www.w3.org/2000/svg" xmlns:xlink="http://www.w3.org/1999/xlink" version="1.1" width="1280" height="1024" viewBox="0 0 1280 1024" xml:space="preserve">
<desc>Created with Fabric.js 4.4.0</desc>
<defs>
</defs>
<g transform="matrix(1 0 0 1 640 512)" id="background-logo"  >
<rect style="stroke: none; stroke-width: 0; stroke-dasharray: none; stroke-linecap: butt; stroke-dashoffset: 0; stroke-linejoin: miter; stroke-miterlimit: 4; fill: rgb(255,255,255); fill-opacity: 0; fill-rule: nonzero; opacity: 1;"  paint-order="stroke"  x="-640" y="-512" rx="0" ry="0" width="1280" height="1024" />
</g>
<g transform="matrix(1.9819473417817097 2.361992864900896 -2.3619928649008965 1.98194734178171 641.3144736842105 494.47368421052624)" id="logo-logo"  >
<g style=""  paint-order="stroke"   >
		<g transform="matrix(0.11580373895047902 0 0 0.038664629005021794 27.801978190968725 -20.135684898880783)"  >
<g style=""  paint-order="stroke"   >
		<g transform="matrix(1 0 0 1 0 0)"  >
<path style="stroke: none; stroke-width: 1; stroke-dasharray: none; stroke-linecap: butt; stroke-dashoffset: 0; stroke-linejoin: miter; stroke-miterlimit: 4; fill: rgb(255,255,255); fill-rule: nonzero; opacity: 1;"  paint-order="stroke"  transform=" translate(-100, -100)" d="M 200 100 C 200 155.22847498307934 155.22847498307934 200 100 200 C 44.771525016920656 200 0 155.22847498307934 0 100 C 0 44.771525016920656 44.771525016920656 0 100 0 C 155.22847498307934 0 200 44.77152501692063 200 99.99999999999997 Z" stroke-linecap="round" />
</g>
</g>
</g>
		<g transform="matrix(0.10786662942093436 0 0 0.03271173312774953 29.918540732180702 -41.3676801944853)"  >
<g style=""  paint-order="stroke"   >
		<g transform="matrix(1 0 0 1 0 0)"  >
<linearGradient id="SVGID_408755" gradientUnits="userSpaceOnUse" gradientTransform="matrix(1 0 0 1 0 0)"  x1="0" y1="0" x2="0" y2="200">
<stop offset="0%" style="stop-color:rgb(23,234,217);stop-opacity: 1"/>
<stop offset="100%" style="stop-color:rgb(96,120,234);stop-opacity: 1"/>
</linearGradient>
<path style="stroke: none; stroke-width: 1; stroke-dasharray: none; stroke-linecap: butt; stroke-dashoffset: 0; stroke-linejoin: miter; stroke-miterlimit: 4; fill: url(#SVGID_408755); fill-rule: nonzero; opacity: 1;"  paint-order="stroke"  transform=" translate(-100, -100)" d="M 200 100 C 200 155.22847498307934 155.22847498307934 200 100 200 C 44.771525016920656 200 0 155.22847498307934 0 100 C 0 44.771525016920656 44.771525016920656 0 100 0 C 155.22847498307934 0 200 44.77152501692063 200 99.99999999999997 Z" stroke-linecap="round" />
</g>
</g>
</g>
		<g transform="matrix(0.2416752970879037 0 0 -0.2416752970879037 34.89746241199009 -0.6104718004440031)"  >
<linearGradient id="SVGID_408756" gradientUnits="userSpaceOnUse" gradientTransform="matrix(1 0 0 1 1545.5500000000002 1133.33)"  x1="0" y1="0" x2="0" y2="338">
<stop offset="0%" style="stop-color:rgb(23,234,217);stop-opacity: 1"/>
<stop offset="100%" style="stop-color:rgb(96,120,234);stop-opacity: 1"/>
</linearGradient>
<path style="stroke: none; stroke-width: 1; stroke-dasharray: none; stroke-linecap: butt; stroke-dashoffset: 0; stroke-linejoin: miter; stroke-miterlimit: 4; fill: url(#SVGID_408756); fill-rule: nonzero; opacity: 1;"  paint-order="stroke"  transform=" translate(-1773.4100000000003, -1302.53)" d="M 1832.45 1471.73 L 1545.5500000000002 1471.73 L 1545.5500000000002 1424.08 C 1545.5500000000002 1408.79 1549.8400000000001 1394.48 1557.5400000000002 1382.37 L 1832.4500000000003 1382.37 C 1876.2500000000002 1382.37 1911.9000000000003 1346.7199999999998 1911.9000000000003 1303.03 C 1911.9000000000003 1259.23 1876.2500000000002 1223.57 1832.4500000000003 1223.57 L 1787.1100000000004 1222.6899999999998 C 1791.4000000000003 1207.83 1793.7100000000003 1192.09 1793.7100000000003 1175.9199999999998 L 1793.7100000000003 1133.33 L 1832.4500000000003 1134.21 C 1925.6600000000003 1134.21 2001.2700000000002 1209.81 2001.2700000000002 1303.03 C 2001.2700000000002 1396.1299999999999 1925.6600000000003 1471.73 1832.4500000000003 1471.73" stroke-linecap="round" />
</g>
		<g transform="matrix(0.2416752970879037 0 0 -0.2416752970879037 -34.89746241199009 -0.716808931162717)"  >
<linearGradient id="SVGID_408758" gradientUnits="userSpaceOnUse" gradientTransform="matrix(1 0 0 1 1248.7399999999998 1134.21)"  x1="0" y1="0" x2="0" y2="338">
<stop offset="0%" style="stop-color:rgb(245,81,95);stop-opacity: 1"/>
<stop offset="100%" style="stop-color:rgb(159,4,27);stop-opacity: 1"/>
</linearGradient>
<path style="stroke: none; stroke-width: 1; stroke-dasharray: none; stroke-linecap: butt; stroke-dashoffset: 0; stroke-linejoin: miter; stroke-miterlimit: 4; fill: url(#SVGID_408758); fill-rule: nonzero; opacity: 1;"  paint-order="stroke"  transform=" translate(-1476.6, -1302.97)" d="M 1417.45 1223.57 C 1373.75 1223.57 1338.1000000000001 1259.23 1338.1000000000001 1303.03 C 1338.1000000000001 1346.72 1373.7500000000002 1382.37 1417.45 1382.37 L 1461.3600000000001 1382.37 C 1457.95 1395.6899999999998 1456.18 1409.6599999999999 1456.18 1424.08 L 1456.18 1471.73 L 1417.55 1471.73 C 1324.34 1471.73 1248.74 1396.13 1248.74 1303.03 C 1248.74 1209.81 1324.34 1134.21 1417.55 1134.21 L 1704.46 1134.21 L 1704.46 1175.92 C 1704.46 1193.8600000000001 1698.52 1210.25 1688.39 1223.5700000000002 L 1417.45 1223.5700000000002" stroke-linecap="round" />
</g>
		<g transform="matrix(0.2416752970879037 0 0 -0.2416752970879037 -0.15280676783874014 2.842171e-14)"  >
<path style="stroke: none; stroke-width: 1; stroke-dasharray: none; stroke-linecap: butt; stroke-dashoffset: 0; stroke-linejoin: miter; stroke-miterlimit: 4; fill: rgb(84,84,85); fill-rule: nonzero; opacity: 1;"  paint-order="stroke"  transform=" translate(-1624.9449999999997, -1300.0040000000004)" d="M 1704.46 1471.73 L 1704.46 1670.27 C 1704.46 1714.07 1668.8 1749.72 1625 1749.72 C 1581.2 1749.72 1545.55 1714.07 1545.55 1670.27 L 1545.55 1424.08 C 1545.55 1408.79 1549.84 1394.48 1557.54 1382.37 C 1571.4099999999999 1359.6999999999998 1596.5 1344.6299999999999 1625 1344.6299999999999 C 1653.5 1344.6299999999999 1678.59 1359.6999999999998 1692.46 1382.37 L 1788.54 1382.37 C 1780.3899999999999 1350.2399999999998 1763 1321.7299999999998 1739.34 1299.9499999999998 C 1761.4599999999998 1279.59 1778.1899999999998 1253.2799999999997 1786.8899999999999 1223.5699999999997 C 1786.9999999999998 1223.2399999999998 1787.11 1223.0199999999998 1787.11 1222.6899999999996 C 1791.3999999999999 1207.8299999999997 1793.7099999999998 1192.0899999999997 1793.7099999999998 1175.9199999999996 L 1793.7099999999998 929.734 C 1793.7099999999998 836.52 1718.2099999999998 760.918 1624.9999999999998 760.918 C 1531.7899999999997 760.918 1456.1799999999998 836.52 1456.1799999999998 929.734 L 1456.1799999999998 1134.21 L 1545.5499999999997 1134.21 L 1545.5499999999997 929.734 C 1545.5499999999997 885.9340000000001 1581.1999999999998 850.277 1624.9999999999998 850.277 C 1668.7999999999997 850.277 1704.4599999999998 885.9340000000001 1704.4599999999998 929.734 L 1704.4599999999998 1175.92 C 1704.4599999999998 1193.8600000000001 1698.5199999999998 1210.25 1688.3899999999999 1223.5700000000002 C 1673.9699999999998 1242.8300000000002 1650.86 1255.2700000000002 1624.9999999999998 1255.2700000000002 C 1599.1399999999999 1255.2700000000002 1576.0299999999997 1242.8300000000002 1561.6099999999997 1223.5700000000002 L 1463.0099999999998 1223.5700000000002 C 1471.6999999999998 1253.2800000000002 1488.4299999999998 1279.5900000000001 1510.5499999999997 1299.9500000000003 C 1486.8899999999996 1321.7300000000002 1469.4999999999998 1350.2400000000002 1461.3599999999997 1382.3700000000003 C 1457.9499999999996 1395.6900000000003 1456.1799999999996 1409.6600000000003 1456.1799999999996 1424.0800000000004 L 1456.1799999999996 1670.2700000000004 C 1456.1799999999996 1763.4800000000005 1531.7899999999995 1839.0900000000004 1624.9999999999995 1839.0900000000004 C 1718.2099999999996 1839.0900000000004 1793.7099999999996 1763.4800000000005 1793.7099999999996 1670.2700000000004 L 1793.7099999999996 1471.7300000000005 L 1704.4599999999996 1471.7300000000005" stroke-linecap="round" />
</g>
</g>
</g>
</svg>